<svg width="168" height="112" viewBox="0 0 168 112" fill="none" xmlns="http://www.w3.org/2000/svg">
<path d="M142.853 47.6154C135.92 47.6154 128.167 46.6426 120.296 44.7442C109.142 42.0558 99.0305 37.8227 91.826 32.829C84.079 27.4521 80.4944 21.6744 81.7325 16.551C82.9647 11.4276 88.7897 7.91379 98.1344 6.65801C106.825 5.49066 117.749 6.32195 128.904 9.01039C140.059 11.6988 150.17 15.9319 157.375 20.9256C165.122 26.3025 168.706 32.0803 167.468 37.2036C166.236 42.327 160.411 45.8408 151.066 47.0966C148.507 47.4385 145.748 47.6095 142.848 47.6095L142.853 47.6154ZM106.377 10.2603C103.659 10.2603 101.082 10.4195 98.6886 10.7437C91.26 11.746 86.5434 14.2104 85.7475 17.512C84.9516 20.8136 88.0291 25.1587 94.1843 29.4331C100.976 34.1438 110.592 38.1587 121.269 40.7292C131.94 43.2998 142.335 44.1134 150.524 43.005C157.952 42.0027 162.669 39.5383 163.465 36.2367C164.261 32.9351 161.183 28.59 155.028 24.3156C148.236 19.605 138.62 15.59 127.943 13.0195C120.385 11.1977 112.968 10.2603 106.377 10.2603Z" fill="#1F1F1F"/>
<path d="M125.027 25.1476C134.684 27.4764 143.469 31.0492 149.765 35.2116C151.18 36.149 152.33 37.0216 153.267 37.8293C154.435 37.5463 155.396 37.2338 156.168 36.9272C158.037 36.1785 158.603 33.8261 157.282 32.3109C156.174 31.0316 154.393 29.4102 151.605 27.5708C145.308 23.4084 136.523 19.8356 126.866 17.5068C117.209 15.178 107.758 14.3585 100.259 15.2016C96.8924 15.5789 94.5459 16.2275 92.9776 16.8642C91.1676 17.6012 90.6075 19.9241 91.8869 21.398C92.4411 22.0406 93.1663 22.7717 94.1037 23.5794C95.3064 23.2905 96.7332 23.0311 98.4193 22.8483C105.919 22.0111 115.37 22.8306 125.027 25.1535V25.1476Z" fill="#1F1F1F"/>
<path d="M152.724 40.0808L151.922 39.3969C150.973 38.5833 149.859 37.752 148.621 36.9325C142.518 32.8998 133.964 29.4272 124.537 27.1515C115.109 24.8817 105.912 24.0798 98.6425 24.8875C97.1627 25.0526 95.7949 25.2826 94.5803 25.5773L93.5545 25.825L92.7527 25.1411C91.8152 24.3392 90.9957 23.5315 90.3177 22.7415C89.286 21.5447 88.891 19.9057 89.2624 18.361C89.6338 16.8163 90.7304 15.537 92.1926 14.9415C94.2797 14.0925 96.915 13.4853 100.022 13.1374C107.757 12.2766 117.462 13.1079 127.343 15.4898C137.224 17.8717 146.245 21.5447 152.736 25.8368C155.312 27.5406 157.358 29.2563 158.832 30.9483C159.893 32.1628 160.3 33.8254 159.923 35.3819C159.545 36.9443 158.431 38.2354 156.934 38.8368C155.996 39.2141 154.923 39.5501 153.744 39.8331L152.718 40.0808H152.724ZM104.521 20.454C110.929 20.454 118.169 21.3678 125.509 23.1365C135.396 25.5184 144.411 29.1914 150.902 33.4835C151.934 34.1674 152.895 34.8631 153.768 35.5588C154.363 35.3878 154.905 35.205 155.401 35.0046C155.76 34.8572 155.878 34.5742 155.919 34.415C155.955 34.2558 155.984 33.9492 155.731 33.6545C154.888 32.6876 153.296 31.1429 150.472 29.2798C144.37 25.2472 135.815 21.7746 126.388 19.4989C116.961 17.229 107.763 16.4272 100.494 17.2349C97.0919 17.6123 94.9577 18.2726 93.7608 18.7619C93.4307 18.8975 93.3246 19.1687 93.2833 19.322C93.2479 19.4753 93.2184 19.7701 93.4484 20.0354C93.808 20.454 94.2266 20.8844 94.6924 21.3206C95.7831 21.0966 96.9563 20.9197 98.1885 20.7782C100.181 20.5542 102.298 20.4481 104.521 20.4481V20.454Z" fill="#1F1F1F"/>
<path d="M122.351 36.2545C132.008 38.5833 141.459 39.4028 148.958 38.5597C150.645 38.371 152.065 38.1175 153.268 37.8227C152.331 37.015 151.175 36.1366 149.766 35.2051C143.469 31.0427 134.685 27.4699 125.028 25.1411C115.37 22.8123 105.92 21.9928 98.4202 22.8359C96.734 23.0245 95.3072 23.2781 94.1045 23.5669C95.0419 24.3747 96.1975 25.2531 97.6124 26.1846C103.909 30.347 112.694 33.9198 122.351 36.2486V36.2545Z" fill="white"/>
<path d="M142.855 40.9418C136.447 40.9418 129.207 40.0279 121.866 38.2592C111.979 35.8773 102.965 32.2043 96.4735 27.9123C95.088 26.9984 93.8382 26.061 92.7592 25.1413C92.1697 24.6343 91.9161 23.8442 92.0989 23.0896C92.2817 22.3349 92.8712 21.7454 93.62 21.5685C94.9996 21.2383 96.5384 20.973 98.1892 20.7903C105.924 19.9295 115.629 20.7608 125.51 23.1426C135.397 25.5245 144.412 29.1975 150.903 33.4896C152.282 34.4034 153.532 35.3349 154.611 36.2606C155.201 36.7676 155.454 37.5576 155.272 38.3123C155.089 39.0669 154.499 39.6565 153.751 39.8334C152.365 40.1635 150.832 40.4288 149.187 40.6116C147.194 40.8356 145.078 40.9418 142.855 40.9418ZM99.2858 24.8229C105.347 28.7082 113.677 32.0451 122.827 34.2501C131.978 36.4551 140.916 37.2746 148.079 36.5789C142.018 32.6937 133.687 29.3567 124.537 27.1517C115.387 24.9467 106.449 24.1272 99.2858 24.8229Z" fill="#1F1F1F"/>
<path d="M127.691 70.1965C115.139 70.1965 103.471 66.1934 92.8944 58.2283C87.7828 54.3784 84.7406 48.4945 84.5519 42.0741L84.0508 24.9412L88.1778 24.8232L88.6789 41.9561C88.8322 47.1149 91.273 51.8432 95.3765 54.9326C107.999 64.4364 122.29 67.8795 137.849 65.1675C142.914 64.2831 147.241 61.1879 149.723 56.6659L157.971 41.6437L161.591 43.6305L153.343 58.6586C150.254 64.289 144.865 68.1448 138.563 69.2414C134.872 69.8841 131.246 70.2024 127.691 70.2024V70.1965Z" fill="#1F1F1F"/>
<path d="M125.911 37.0036C106.667 22.6652 114.455 13.5387 103.071 11.0094C95.7129 9.37633 97.1161 4.4947 92.1578 2.69061C87.1995 0.886529 82.7541 3.01488 82.0231 9.27611C81.404 14.5999 84.2104 19.7528 88.9034 22.341C107.776 32.7646 118.553 36.3374 125.905 37.0036H125.911Z" fill="white"/>
<path d="M133.001 39.7152L125.72 39.0608C116.888 38.2649 104.873 33.5248 87.9047 24.1506C82.3745 21.0966 79.2616 15.1597 79.9749 9.03992C80.5056 4.47665 82.6398 2.26576 84.3378 1.22222C86.6843 -0.228117 89.7088 -0.393198 92.863 0.756464C95.6399 1.76463 96.8721 3.53923 97.9628 5.10159C99.1891 6.85851 100.156 8.24989 103.522 8.99865C109.902 10.4195 111.387 13.9275 113.109 17.9896C114.913 22.2463 117.383 28.083 127.141 35.3524L133.001 39.7211V39.7152ZM88.8362 4.12291C87.9519 4.12291 87.1618 4.32336 86.5074 4.73016C85.1868 5.54377 84.3437 7.20046 84.0784 9.51747C83.5654 13.9039 85.9119 18.3315 89.9093 20.5424C101.836 27.1338 111.163 31.3492 118.527 33.4599C112.814 27.8767 110.845 23.225 109.312 19.605C107.679 15.7492 106.936 13.9923 102.626 13.0313C97.6857 11.9347 95.9642 9.45262 94.5787 7.45987C93.6648 6.14513 93.0045 5.19593 91.4539 4.63583C90.5283 4.29978 89.6439 4.1288 88.8421 4.1288L88.8362 4.12291Z" fill="#1F1F1F"/>
<path d="M15.5509 93.1276C8.01619 93.1276 2.85743 90.9226 0.864674 86.7779C-1.42287 82.0318 0.864675 75.6232 7.29691 68.7371C13.2811 62.3343 22.2721 56.0613 32.6132 51.0794C42.9543 46.0976 53.4605 42.9729 62.1979 42.2831C71.5957 41.5461 78.0279 43.7452 80.3155 48.4971C82.603 53.2432 80.3155 59.6518 73.8773 66.538C67.8932 72.9407 58.9022 79.2137 48.5611 84.1956C38.22 89.1774 27.7138 92.3022 18.9763 92.992C17.7854 93.0863 16.6416 93.1335 15.545 93.1335L15.5509 93.1276ZM65.6233 46.298C57.7879 46.298 46.6214 48.9157 34.3996 54.7996C24.5124 59.5633 15.9518 65.5121 10.3096 71.5552C5.19214 77.0323 3.10505 81.9257 4.57898 84.9856C6.05291 88.0455 11.1822 89.4604 18.658 88.8768C26.9002 88.2282 36.8876 85.245 46.7747 80.4813C56.6618 75.7176 65.2224 69.7688 70.8646 63.7257C75.9821 58.2486 78.0692 53.3552 76.5953 50.2953C75.3572 47.7189 71.3952 46.298 65.6233 46.298Z" fill="#1F1F1F"/>
<path d="M39.8136 66.0363C30.8639 70.3461 23.0285 75.6935 17.7518 81.0939C16.5667 82.3085 15.6234 83.4051 14.8806 84.3896C13.6778 84.3602 12.6756 84.2599 11.8561 84.1184C9.8692 83.7765 8.81976 81.601 9.79255 79.8382C10.6121 78.3583 12.0035 76.3951 14.3382 74.0073C19.6148 68.6069 27.4503 63.2595 36.4 58.9497C45.3497 54.6399 54.4114 51.8454 61.9226 51.079C65.2949 50.737 67.7181 50.8785 69.3925 51.1733C71.3145 51.5093 72.3521 53.6613 71.4147 55.3769C71.0079 56.1198 70.4537 56.9923 69.7049 57.9769C68.4668 57.9474 67.0165 58.0005 65.3303 58.1715C57.8191 58.932 48.7574 61.7266 39.8077 66.0422L39.8136 66.0363Z" fill="#1F1F1F"/>
<path d="M15.8875 86.4773L14.8322 86.4537C13.6236 86.4243 12.5034 86.324 11.507 86.153C9.91515 85.8818 8.55323 84.856 7.85754 83.4115C7.16184 81.9671 7.20901 80.2574 7.98724 78.8424C9.06616 76.8791 10.7111 74.7685 12.8689 72.5635C18.3107 66.9979 26.3465 61.5031 35.5085 57.0873C44.6646 52.6773 53.9739 49.812 61.7209 49.0278C64.8279 48.7095 67.5341 48.7507 69.7568 49.1399C71.3132 49.4111 72.6516 50.431 73.3414 51.8637C74.0312 53.2963 73.9899 54.9766 73.2353 56.3621C72.74 57.2759 72.1092 58.2369 71.3604 59.2215L70.7237 60.0587L69.6683 60.0351C68.4243 60.0056 67.0388 60.0646 65.5531 60.2179C58.2719 60.9548 49.4519 63.6845 40.7203 67.8941C31.9829 72.1036 24.3538 77.3036 19.2422 82.5331C18.2045 83.5943 17.2907 84.6379 16.536 85.6342L15.8993 86.4714L15.8875 86.4773ZM65.618 52.9426C64.6275 52.9426 63.4719 52.9956 62.1277 53.1312C54.8465 53.8682 46.0265 56.5979 37.289 60.8074C28.5515 65.017 20.9225 70.217 15.8109 75.4465C13.4467 77.8637 12.2145 79.7091 11.5954 80.8351C11.4068 81.1771 11.5011 81.4719 11.5718 81.6193C11.6426 81.7666 11.8195 82.0202 12.2027 82.085C12.7274 82.1735 13.2993 82.2383 13.9183 82.2796C14.6199 81.4188 15.4159 80.5344 16.2825 79.6501C21.7243 74.0846 29.7661 68.5898 38.9221 64.1798C48.0782 59.7698 57.3875 56.9045 65.1345 56.1145C66.3726 55.9907 67.5577 55.9199 68.6661 55.9081C69.0316 55.3834 69.3441 54.8764 69.6094 54.3929C69.7803 54.0805 69.6919 53.7975 69.6212 53.656C69.5504 53.5145 69.3853 53.2669 69.0375 53.2079C68.2651 53.0723 67.145 52.9485 65.6239 52.9485L65.618 52.9426Z" fill="#1F1F1F"/>
<path d="M44.7761 76.3307C35.8264 80.6405 26.7647 83.4351 19.2535 84.2015C17.5673 84.3725 16.1229 84.4196 14.8848 84.3961C15.6335 83.4115 16.5768 82.309 17.756 81.1004C23.0327 75.6999 30.8681 70.3525 39.8178 66.0427C48.7675 61.733 57.8292 58.9384 65.3404 58.172C67.0266 58.001 68.4769 57.948 69.715 57.9774C68.9663 58.962 68.0229 60.0645 66.8379 61.279C61.5612 66.6795 53.7258 72.0269 44.7761 76.3366V76.3307Z" fill="white"/>
<path d="M15.545 86.4598C15.3033 86.4598 15.0675 86.4598 14.8317 86.4539C14.0593 86.4362 13.3577 85.9881 13.0217 85.2865C12.6856 84.585 12.7682 83.7596 13.2398 83.1405C14.1006 82.0085 15.1206 80.8353 16.282 79.6503C21.7238 74.0847 29.7655 68.5899 38.9216 64.1799C48.0777 59.77 57.387 56.9046 65.134 56.1146C66.7907 55.9495 68.3472 55.8788 69.7621 55.9142C70.5345 55.9319 71.2361 56.3858 71.5721 57.0815C71.9082 57.7772 71.8256 58.6085 71.354 59.2276C70.4932 60.3595 69.4733 61.5328 68.3118 62.7178C62.87 68.2833 54.8283 73.7781 45.6722 78.1881C36.5102 82.5981 27.2068 85.4634 19.4598 86.2534C18.0861 86.3949 16.7714 86.4657 15.545 86.4657V86.4598ZM64.9041 60.2888C57.7526 61.1201 49.192 63.8085 40.708 67.8942C32.2241 71.9799 24.7895 76.9972 19.6838 82.0734C26.8354 81.2421 35.396 78.5537 43.8799 74.4679C52.3639 70.3822 59.7984 65.365 64.9041 60.2888Z" fill="#1F1F1F"/>
<path d="M35.0252 112C28.9467 112 23.2161 109.388 19.2011 104.754L7.96973 91.807L11.0886 89.1009L22.3199 102.048C25.6982 105.945 30.5857 108.056 35.7209 107.855C51.5038 107.224 64.7456 100.839 75.0808 88.8945C78.4413 85.0093 79.8268 79.8682 78.8894 74.7979L75.7647 57.948L79.8209 57.1934L82.9457 74.0433C84.1189 80.3576 82.3856 86.7544 78.1996 91.5948C67.0921 104.441 52.8539 111.298 35.886 111.982C35.603 111.994 35.3141 112 35.0311 112H35.0252Z" fill="#1F1F1F"/>
<path d="M41.4521 77.8107C51.074 71.8914 60.5956 61.3852 63.1484 49.187C65.1471 39.6419 72.4578 39.8306 75.4587 42.2537C80.2755 46.139 78.5716 52.1526 74.5331 55.6782C58.2903 69.8515 48.5034 75.6175 41.458 77.8165L41.4521 77.8107Z" fill="white"/>
<path d="M26.3291 84.6914L40.3668 76.0542C48.7152 70.919 58.5551 61.0496 61.1257 48.763C62.4935 42.2364 66.1135 40.0432 68.1534 39.3122C71.0777 38.2686 74.45 38.7875 76.7493 40.6446C79.1135 42.5489 80.387 45.0487 80.446 47.8668C80.5108 51.1802 78.807 54.6823 75.8827 57.2292C61.2731 69.9757 50.5252 77.139 42.0648 79.7802L26.335 84.6914H26.3291ZM71.2251 42.9144C70.6768 42.9144 70.1049 43.0029 69.5389 43.2033C67.3928 43.9698 65.8776 46.1866 65.1642 49.612C63.7316 56.4569 60.2944 62.5943 56.0789 67.7177C61.0608 64.2569 66.7148 59.7585 73.1706 54.1222C75.1516 52.3947 76.3602 50.0306 76.319 47.9494C76.2895 46.3693 75.5643 44.9897 74.1611 43.8578C73.5067 43.3272 72.4278 42.9144 71.2309 42.9144H71.2251Z" fill="#1F1F1F"/>
</svg>
