<svg width="121" height="26" viewBox="0 0 121 26" fill="none" xmlns="http://www.w3.org/2000/svg">
<path d="M93.0724 0H102.746L108.756 13.8838H108.885L111.841 0H120.808L115.28 26H106.024L99.6929 11.7627H99.5001L96.4791 26H87.5446L93.0724 0Z" fill="#1F1F1F"/>
<path d="M76.1832 22.5612H65.8346L63.6813 26H54.2005L70.8803 0H80.8111L86.2746 26H76.7938L76.1832 22.5612ZM69.9804 16.0049H75.0262L73.9656 9.8665H73.8692L69.9804 16.0049Z" fill="#1F1F1F"/>
<path d="M29.1571 19.6687L45.2263 6.65266H32.6602L34.0743 0H58.2424L56.989 5.8492L40.7269 19.3152H54.7714L53.3573 26H27.8073L29.1571 19.6687Z" fill="#1F1F1F"/>
<path d="M1.34981 19.6687L17.419 6.65267H4.8529L6.267 1.42201e-05H30.4351L29.1817 5.84921L12.9197 19.3152H26.9642L25.5501 26H0L1.34981 19.6687Z" fill="#1F1F1F"/>
</svg>
