<svg width="60" height="13" viewBox="0 0 60 13" fill="none" xmlns="http://www.w3.org/2000/svg">
<path d="M45.976 0H50.7546L53.7234 6.85835H53.7869L55.2475 0H59.6768L56.9462 12.8435H52.374L49.2464 5.81054H49.1512L47.6589 12.8435H43.2454L45.976 0Z" fill="#1F1F1F"/>
<path d="M37.6331 11.1448H32.5211L31.4574 12.8435H26.774L35.0136 0H39.9192L42.6181 12.8435H37.9347L37.6331 11.1448ZM34.5691 7.90615H37.0616L36.5377 4.87387H36.49L34.5691 7.90615Z" fill="#1F1F1F"/>
<path d="M14.4031 9.71599L22.341 3.28629H16.1335L16.8321 0H28.7707L28.1515 2.8894L20.1184 9.54136H27.0561L26.3575 12.8435H13.7363L14.4031 9.71599Z" fill="#1F1F1F"/>
<path d="M0.666784 9.71609L8.60468 3.28639H2.39725L3.09578 9.91821e-05H15.0344L14.4152 2.8895L6.38207 9.54146H13.3198L12.6213 12.8436H0L0.666784 9.71609Z" fill="#1F1F1F"/>
</svg>
