<svg width="20" height="18" viewBox="0 0 20 18" fill="none" xmlns="http://www.w3.org/2000/svg">
<path d="M3.17798 8.53174L4.0766 11.5291C4.37729 12.5338 5.11361 13.3514 6.07957 13.7451C8.84752 14.8743 11.5808 14.8091 14.2818 13.55C15.2241 13.1109 15.9131 12.2595 16.1579 11.242L16.8875 8.20539" fill="#FFD800"/>
<path d="M12.599 14.6247C10.3947 15.2166 8.15636 15.0564 5.92045 14.1444C4.83027 13.6993 4.00883 12.7909 3.66774 11.6521L2.76911 8.65477L3.58673 8.40961L4.48535 11.407C4.75113 12.294 5.39029 13.0006 6.23858 13.3468C8.87895 14.4244 11.5245 14.3616 14.1016 13.1592C14.9299 12.773 15.5286 12.0372 15.7436 11.1392L16.4732 8.10253L17.3027 8.30888L16.5731 11.3455C16.2963 12.4986 15.5268 13.4452 14.4627 13.9405C13.8455 14.2288 13.224 14.4558 12.5998 14.6234L12.599 14.6247Z" fill="#1F1F1F"/>
<path d="M17.6023 6.89798C17.5564 5.25461 14.1144 4.00316 9.9143 4.1028C5.71419 4.20243 2.34649 5.61542 2.39233 7.25879C2.43818 8.90216 5.88021 10.1536 10.0803 10.054C14.2804 9.95434 17.6481 8.54135 17.6023 6.89798Z" fill="#FFD800"/>
<path d="M14.1813 9.93231C12.9659 10.2586 11.5609 10.4509 10.0928 10.4862C8.01026 10.536 6.03632 10.2625 4.53597 9.7169C2.90606 9.12476 1.99348 8.25532 1.96551 7.27096C1.91139 5.32962 5.32356 3.7827 9.90243 3.67335C11.985 3.62351 13.9589 3.89705 15.4593 4.44262C17.0892 5.03476 18.0015 5.90316 18.0298 6.88856C18.0577 7.87292 17.1948 8.78441 15.5998 9.45338C15.1662 9.63556 14.6912 9.79542 14.1823 9.93204L14.1813 9.93231ZM6.03049 5.05841C4.01469 5.59963 2.79583 6.46851 2.81701 7.25075C2.83337 7.83813 3.58265 8.4572 4.81996 8.90734C6.22358 9.41759 8.08664 9.67298 10.067 9.62495C12.0466 9.57823 13.8936 9.23501 15.267 8.65787C16.4779 8.14998 17.1912 7.49595 17.1746 6.90753C17.1582 6.32014 16.409 5.70108 15.1717 5.25093C13.768 4.74068 11.905 4.48529 9.92462 4.53333C8.44101 4.56835 7.11897 4.76505 6.03021 5.05737L6.03049 5.05841Z" fill="#1F1F1F"/>
<path d="M9.98818 6.75383C11.7856 6.71144 13.4895 6.92932 14.7867 7.36786C15.0783 7.46677 15.3204 7.56669 15.5224 7.66513C15.713 7.56047 15.8661 7.4603 15.9865 7.37002C16.2776 7.15033 16.2651 6.70901 15.9627 6.5038C15.7085 6.33022 15.3206 6.12787 14.7463 5.93435C13.4492 5.49581 11.7453 5.27793 9.94784 5.32032C8.15038 5.36271 6.46043 5.66154 5.19012 6.16197C4.61983 6.38641 4.24057 6.61083 3.99672 6.79666C3.71538 7.0115 3.7275 7.44735 4.02079 7.64722C4.14804 7.73453 4.30934 7.82941 4.51136 7.92785C4.70781 7.8205 4.9448 7.70783 5.23074 7.59651C6.50132 7.09712 8.19128 6.79829 9.98846 6.75487L9.98818 6.75383Z" fill="#1F1F1F"/>
<path d="M15.5359 8.14668L15.3391 8.05129C15.1371 7.95285 14.9057 7.86007 14.6519 7.77442C13.4008 7.35136 11.7476 7.14106 9.99953 7.18244C8.25046 7.22409 6.61182 7.51249 5.38619 7.99424C5.13752 8.09221 4.91253 8.19608 4.71504 8.30371L4.52346 8.40864L4.32668 8.31325C4.12233 8.21433 3.9383 8.10883 3.7801 8.00085C3.52954 7.82851 3.37435 7.54253 3.36577 7.23501C3.3572 6.9275 3.4962 6.63497 3.73724 6.451C4.06525 6.20022 4.5018 5.96711 5.03229 5.75893C6.34783 5.24189 8.0891 4.93263 9.93467 4.88847C11.7802 4.84431 13.5361 5.07053 14.8793 5.52455C15.4138 5.70537 15.8587 5.91468 16.1992 6.14645C16.456 6.32156 16.6144 6.61114 16.6235 6.92074C16.6327 7.23034 16.4904 7.52709 16.2434 7.71375C16.0947 7.82613 15.9214 7.9373 15.7267 8.04307L15.5351 8.148L15.5359 8.14668ZM9.97529 6.32301C11.8209 6.27885 13.5767 6.50508 14.9199 6.9591C15.1253 7.02878 15.3185 7.10283 15.4974 7.18075C15.5818 7.12911 15.6592 7.07601 15.7291 7.0238C15.7641 6.9977 15.7704 6.96368 15.7697 6.94047C15.769 6.91726 15.7611 6.88372 15.7236 6.85924C15.5331 6.72983 15.1858 6.53443 14.6105 6.34119C13.3595 5.91813 11.7062 5.70783 9.95816 5.74921C8.20909 5.79087 6.57045 6.07926 5.34482 6.56101C4.77452 6.78545 4.43647 6.99881 4.25307 7.13832C4.2227 7.16096 4.21685 7.19262 4.21756 7.21584C4.21799 7.23801 4.22533 7.26947 4.25759 7.2909C4.33211 7.34222 4.41542 7.3934 4.50594 7.44265C4.68027 7.35573 4.86995 7.27248 5.07057 7.19299C6.38714 6.67567 8.12738 6.36669 9.97295 6.32253L9.97529 6.32301Z" fill="#1F1F1F"/>
<path d="M10.0462 8.8377C11.8436 8.79531 13.5336 8.49648 14.8039 7.99605C15.0896 7.88369 15.3258 7.77234 15.522 7.66394C15.32 7.5655 15.0765 7.46482 14.7862 7.36667C13.4891 6.92813 11.7852 6.71025 9.98771 6.75264C8.19025 6.79503 6.50029 7.09386 5.22999 7.59429C4.94432 7.70665 4.70705 7.81828 4.5106 7.92563C4.71262 8.02407 4.95609 8.12476 5.2474 8.22263C6.54453 8.66117 8.24844 8.87905 10.0459 8.83666L10.0462 8.8377Z" fill="#F7F5F0"/>
<path d="M13.8647 8.75616C12.7409 9.05788 11.4283 9.23643 10.0578 9.26896C8.21221 9.31312 6.45637 9.0869 5.11312 8.63288C4.82546 8.53626 4.5614 8.42884 4.32675 8.31576C4.18197 8.24541 4.08777 8.10019 4.0841 7.93847C4.08043 7.77674 4.16501 7.62698 4.30563 7.55022C4.53384 7.42543 4.79115 7.30619 5.07297 7.19598C6.38954 6.67866 8.12978 6.36968 9.97535 6.32552C11.8209 6.28136 13.5768 6.50758 14.92 6.9616C15.2066 7.0585 15.4717 7.16564 15.7054 7.279C15.8501 7.34934 15.9443 7.49456 15.948 7.65629C15.9527 7.81774 15.8671 7.96777 15.7265 8.04453C15.4983 8.16933 15.241 8.28856 14.9591 8.39878C14.6206 8.53203 14.253 8.6519 13.8636 8.75644L13.8647 8.75616ZM5.64352 7.90204C6.85953 8.26874 8.40531 8.44884 10.0335 8.40953C11.6631 8.371 13.1963 8.1176 14.3899 7.69348C13.1739 7.32677 11.6281 7.14668 9.99987 7.18598C8.37034 7.22452 6.83714 7.47792 5.64352 7.90204Z" fill="#1F1F1F"/>
<path d="M10.7038 8.80437C6.663 7.17894 7.59164 5.20442 5.48289 5.2925C4.12008 5.3497 4.13413 4.42315 3.18246 4.33764C2.23079 4.25213 1.55489 4.83592 1.72357 5.97419C1.86744 6.94192 2.60168 7.71882 3.54412 7.95503C7.33475 8.90764 9.3868 9.03205 10.7028 8.80465L10.7038 8.80437Z" fill="#F7F5F0"/>
<path d="M12.2665 8.97012L10.7776 9.22833C9.18945 9.50317 6.85936 9.23164 3.44279 8.37251C2.31071 8.08803 1.47018 7.17026 1.30131 6.03539C1.17447 5.18457 1.45197 4.67988 1.70682 4.40751C2.05928 4.02981 2.5958 3.85233 3.21711 3.9084C3.76711 3.95799 4.08641 4.23 4.34382 4.44842C4.63152 4.69325 4.86024 4.88705 5.46213 4.86253C6.67208 4.81183 7.1049 5.37098 7.60676 6.01859C8.12001 6.67985 8.82155 7.58589 10.8579 8.40437L12.2641 8.96964L12.2665 8.97012ZM2.68383 4.79715C2.53859 4.83615 2.41877 4.90398 2.33026 4.99796C2.10204 5.242 2.1044 5.6292 2.14587 5.91117C2.26142 6.68701 2.86407 7.33988 3.64577 7.53677C5.91958 8.10872 7.6811 8.41366 9.03643 8.46435C7.89133 7.7777 7.35735 7.08856 6.93675 6.54619C6.48057 5.95764 6.27294 5.6902 5.50294 5.72197C4.56716 5.76147 4.14019 5.39689 3.79669 5.10463C3.5748 4.91568 3.42739 4.79031 3.14682 4.76534C2.97594 4.74993 2.81877 4.76092 2.68486 4.79688L2.68383 4.79715Z" fill="#1F1F1F"/>
</svg>
