<svg width="29" height="20" viewBox="0 0 29 20" fill="none" xmlns="http://www.w3.org/2000/svg">
<ellipse cx="12.3164" cy="14.7194" rx="0.806631" ry="1.14621" fill="#1F1F1F"/>
<ellipse cx="15.9722" cy="14.7194" rx="0.806631" ry="1.14621" fill="#1F1F1F"/>
<path d="M26.8744 5.92284C26.8744 5.46948 26.6403 4.95981 26.0485 4.41706C25.4562 3.87381 24.5598 3.35189 23.3921 2.89893C21.0614 1.9948 17.7933 1.42034 14.1478 1.42034C10.5024 1.42034 7.23427 1.9948 4.90356 2.89893C3.73593 3.35189 2.8395 3.87381 2.24719 4.41706C1.65541 4.95981 1.42132 5.46948 1.42132 5.92284C1.42133 6.37619 1.65542 6.88588 2.24719 7.42862C2.8395 7.97186 3.73594 8.49366 4.90356 8.94661C7.23427 9.85075 10.5024 10.4253 14.1478 10.4253C17.7933 10.4253 21.0614 9.85075 23.3921 8.94661C24.5597 8.49366 25.4562 7.97186 26.0485 7.42862C26.6403 6.88588 26.8744 6.37619 26.8744 5.92284ZM28.2957 5.92284C28.2957 6.9089 27.7777 7.77051 27.0096 8.47501C26.242 9.17902 25.1705 9.78034 23.9065 10.2707C21.3739 11.2531 17.9235 11.8457 14.1478 11.8457C10.3722 11.8457 6.92175 11.2531 4.38916 10.2707C3.12516 9.78034 2.05373 9.17902 1.28613 8.47501C0.517995 7.77051 9.67614e-06 6.9089 0 5.92284C0 4.93677 0.517993 4.07518 1.28613 3.37067C2.05373 2.66666 3.12515 2.0652 4.38916 1.57486C6.92175 0.592405 10.3722 0 14.1478 0C17.9235 5.67188e-07 21.3739 0.592403 23.9065 1.57486C25.1705 2.0652 26.242 2.66666 27.0096 3.37067C27.7777 4.07518 28.2957 4.93677 28.2957 5.92284Z" fill="#1F1F1F"/>
<path d="M14.1478 5.35291C17.3231 5.35291 20.3221 5.806 22.5905 6.62695C23.0993 6.8116 23.5243 6.99766 23.8754 7.17804C24.2179 7.00334 24.4922 6.83432 24.7097 6.68093C25.2342 6.30738 25.2342 5.53613 24.7097 5.16258C24.2691 4.84869 23.5939 4.47798 22.5905 4.11438C20.3221 3.292 17.3231 2.84033 14.1478 2.84033C10.9726 2.84033 7.97362 3.29342 5.70519 4.11438C4.68611 4.48366 4.00672 4.86005 3.56611 5.17679C3.05869 5.54039 3.05869 6.30312 3.56611 6.66672C3.78641 6.82438 4.06641 6.99766 4.4189 7.17804C4.77139 6.99766 5.19494 6.8116 5.70519 6.62695C7.97362 5.80458 10.9726 5.35291 14.1478 5.35291Z" fill="#1F1F1F"/>
<path d="M14.1486 2.13037C17.3815 2.13038 20.467 2.58904 22.8335 3.44696L23.0269 3.51853C23.9757 3.87748 24.6513 4.24852 25.1229 4.58448L25.1654 4.61582C26.0446 5.28362 26.0305 6.61292 25.1229 7.2594L25.1215 7.26037L25.1202 7.26134C24.8737 7.43527 24.5702 7.62154 24.1992 7.81075L23.8748 7.97623L23.5511 7.80978C23.2304 7.64499 22.8336 7.47056 22.3492 7.29477V7.29491C20.1785 6.5093 17.2657 6.06336 14.1486 6.06335C11.0311 6.06335 8.11858 6.50795 5.94823 7.29477L5.94781 7.29491C5.46282 7.47041 5.06685 7.64483 4.74343 7.81034L4.41961 7.97609L4.09565 7.81034C3.7149 7.61549 3.40451 7.42424 3.15305 7.24428L3.15264 7.24401C2.25013 6.59725 2.2499 5.24755 3.15194 4.60043H3.1518C3.65546 4.23838 4.3958 3.83393 5.46367 3.44696L5.46395 3.44682C7.83003 2.59054 10.9153 2.13037 14.1486 2.13037ZM14.1486 3.55071C11.0315 3.55071 8.11871 3.99655 5.94795 4.78213L5.94809 4.78227C4.97789 5.13385 4.35939 5.48208 3.98183 5.75348L3.98086 5.75418C3.869 5.8344 3.8689 6.00918 3.98058 6.08956L4.05429 6.14116C4.16335 6.21595 4.2902 6.29595 4.43682 6.38001C4.73948 6.23941 5.08004 6.09838 5.46395 5.95946C7.8304 5.10162 10.9158 4.64301 14.1486 4.64301C17.2808 4.64302 20.2741 5.07478 22.6092 5.88026L22.8332 5.95946L22.8338 5.9596C23.2157 6.09818 23.5563 6.23927 23.8591 6.38001C24.0315 6.2813 24.177 6.18787 24.2988 6.10205C24.4247 6.01145 24.4244 5.83127 24.2979 5.74114V5.741C23.9197 5.47157 23.3045 5.12853 22.3489 4.78227L22.3488 4.78213C20.1785 3.99532 17.266 3.55072 14.1486 3.55071Z" fill="#1F1F1F"/>
<path d="M14.1474 9.00476C17.3226 9.00476 20.3216 8.55167 22.5901 7.73072C23.0989 7.54607 23.5239 7.36001 23.8749 7.17963C23.5224 6.99924 23.0989 6.81318 22.5901 6.62854C20.3216 5.80616 17.3226 5.35449 14.1474 5.35449C10.9722 5.35449 7.97318 5.80758 5.70475 6.62854C5.19592 6.81318 4.77094 6.99924 4.41846 7.17963C4.77094 7.36001 5.1945 7.54607 5.70475 7.73072C7.97318 8.55309 10.9722 9.00476 14.1474 9.00476Z" fill="#F7F5F0"/>
<path d="M14.1481 4.64404C17.3811 4.64405 20.4666 5.10272 22.833 5.96063L22.8333 5.96077C23.367 6.15444 23.8181 6.352 24.1995 6.54721C24.4367 6.6686 24.586 6.91243 24.5862 7.17874C24.5865 7.44504 24.4376 7.68917 24.2006 7.81095C23.8194 8.00686 23.3664 8.20453 22.8333 8.39795L22.8328 8.39823C20.4667 9.25453 17.3814 9.71468 14.1481 9.71468C10.9151 9.71468 7.82958 9.25602 5.46308 8.39809V8.39795C4.92777 8.20422 4.47664 8.00671 4.0952 7.81151C3.8578 7.69002 3.7085 7.44582 3.7085 7.17929C3.70852 6.91279 3.85783 6.66869 4.0952 6.54721C4.47716 6.35175 4.92977 6.15424 5.46294 5.96077L5.4635 5.96049C7.82958 5.1042 10.9149 4.64404 14.1481 4.64404ZM14.1481 6.06438C11.1891 6.06438 8.41433 6.46663 6.28353 7.17943C8.41399 7.89321 11.1886 8.29434 14.1481 8.29434C17.1072 8.29434 19.8818 7.89194 22.0126 7.17915C19.8822 6.4654 17.1076 6.06438 14.1481 6.06438Z" fill="#1F1F1F"/>
<path d="M26.9447 8.36942L25.5063 13.6531C24.9682 15.6312 23.5613 17.2632 21.6764 18.0796C16.6665 20.2484 11.6308 20.2483 6.61954 18.0796C4.73457 17.2632 3.32751 15.6313 2.78933 13.6531L1.35107 8.36942L2.72243 7.99658L4.16082 13.2803L4.16096 13.2804C4.58647 14.8445 5.69816 16.1326 7.18446 16.7763C11.8354 18.7891 16.4618 18.789 21.1112 16.7763L21.1806 16.7457C22.6321 16.0923 23.716 14.8201 24.1348 13.2804L25.5732 7.99658L26.9447 8.36942Z" fill="#1F1F1F"/>
</svg>
