<svg width="20" height="18" viewBox="0 0 20 18" fill="none" xmlns="http://www.w3.org/2000/svg">
<path d="M16.7153 8.45765L15.8414 11.4471C15.5487 12.4493 14.82 13.2693 13.8606 13.6709C11.1094 14.822 8.38303 14.7845 5.68113 13.5595C4.73827 13.132 4.04489 12.2936 3.79367 11.2829L3.04417 8.27098" fill="#FFD800"/>
<path d="M5.36382 13.884C4.37238 13.3852 3.65321 12.4847 3.38156 11.3917L2.63206 8.37982L3.45752 8.16641L4.20702 11.1783C4.429 12.0699 5.03123 12.7964 5.85926 13.171C8.43731 14.3397 11.0751 14.3758 13.6999 13.2775C14.5434 12.9244 15.1749 12.2151 15.433 11.3311L16.3069 8.34161L17.1239 8.57748L16.25 11.5669C15.9176 12.7027 15.1059 13.6141 14.0215 14.068C11.1696 15.2608 8.30485 15.2221 5.50425 13.9523C5.4568 13.9308 5.40983 13.9084 5.36334 13.885L5.36382 13.884Z" fill="#1F1F1F"/>
<path d="M9.8454 10.0416C14.0338 10.0988 17.4568 8.81987 17.4908 7.1851C17.5249 5.55032 14.157 4.17873 9.96861 4.12157C5.78017 4.06441 2.35719 5.34331 2.32316 6.97809C2.28914 8.61287 5.65696 9.98446 9.8454 10.0416Z" fill="#FFD800"/>
<path d="M3.79184 9.25673C2.58409 8.64909 1.87902 7.85522 1.89825 6.97102C1.93819 5.03898 5.41142 3.62966 9.97766 3.69171C12.0545 3.72035 14.0071 4.06444 15.4762 4.66315C17.071 5.31196 17.9377 6.20994 17.917 7.18936C17.8962 8.16877 16.9929 9.04254 15.3723 9.64778C13.88 10.206 11.9144 10.4973 9.83754 10.4687C7.36148 10.4348 5.2235 9.97702 3.79184 9.25673ZM2.7485 6.98245C2.72354 8.18052 5.63579 9.55453 9.85469 9.61221C11.8293 9.63858 13.6853 9.36654 15.0808 8.84481C16.3117 8.38547 17.0536 7.76165 17.0657 7.17745C17.0779 6.59324 16.3624 5.95009 15.1506 5.45681C13.777 4.89769 11.9336 4.57501 9.95956 4.54768C5.74065 4.49 2.77298 5.78534 2.7485 6.98245Z" fill="#1F1F1F"/>
<path d="M9.91397 6.75876C8.12164 6.73409 6.42383 6.96815 5.13345 7.41798C4.84352 7.51928 4.60212 7.621 4.40213 7.72075C4.211 7.61859 4.0579 7.52117 3.93759 7.43184C3.6458 7.21545 3.65468 6.77718 3.95525 6.56965C4.20804 6.39567 4.59236 6.18948 5.16316 5.99073C6.45354 5.54089 8.15134 5.30683 9.94367 5.3315C11.736 5.35617 13.4226 5.63598 14.6939 6.11963C15.2645 6.33712 15.6429 6.55628 15.8882 6.73972C16.1701 6.9499 16.1612 7.38339 15.8702 7.58612C15.744 7.67383 15.5835 7.77066 15.3826 7.86994C15.1858 7.76492 14.9481 7.65611 14.6627 7.54736C13.3919 7.06276 11.7053 6.78295 9.91254 6.75924L9.91397 6.75876Z" fill="#1F1F1F"/>
<path d="M4.39224 8.2002L4.2011 8.09804C4.00712 7.99445 3.83315 7.88652 3.68442 7.7757C3.43668 7.59227 3.29288 7.29915 3.29953 6.99054C3.30619 6.68193 3.46118 6.39276 3.71636 6.21639C4.05374 5.98298 4.4952 5.76955 5.02784 5.58519C6.364 5.11999 8.11372 4.87726 9.95315 4.90283C11.7931 4.92744 13.5314 5.21772 14.8474 5.71901C15.3781 5.92125 15.8145 6.14799 16.1432 6.39496C16.3853 6.57553 16.5257 6.86578 16.5196 7.17104C16.5134 7.4763 16.3608 7.76308 16.1118 7.93657C15.9546 8.04584 15.7727 8.15227 15.5698 8.25299L15.3737 8.34987L15.1825 8.24771C14.9857 8.14268 14.7598 8.04104 14.5111 7.94708C13.2848 7.48013 11.6496 7.20935 9.90534 7.18605C8.16106 7.16276 6.51518 7.38815 5.27106 7.82166C5.0188 7.90952 4.78934 8.00405 4.58792 8.10428L4.39176 8.20116L4.39224 8.2002ZM15.1131 6.76938C14.9556 6.69014 14.7663 6.60568 14.5408 6.51982C13.3145 6.05287 11.6793 5.78209 9.93505 5.7588C8.19077 5.73551 6.54489 5.96089 5.30076 6.39441C4.72853 6.59364 4.38329 6.7907 4.19501 6.92154C4.15869 6.94646 4.1504 6.97948 4.15025 7.0034C4.1501 7.02733 4.15609 7.06033 4.19161 7.08661C4.26077 7.1382 4.33849 7.1893 4.42335 7.24039C4.60133 7.16076 4.79404 7.08494 4.99766 7.0134C6.33381 6.5482 8.08305 6.30643 9.92297 6.33104C11.7638 6.35613 13.5012 6.64593 14.8172 7.14722C15.0189 7.22354 15.2074 7.30513 15.3824 7.38961C15.4731 7.33926 15.5553 7.28701 15.6298 7.23573C15.6609 7.21416 15.6682 7.18306 15.6679 7.16009C15.6685 7.1376 15.6625 7.10699 15.6327 7.08358C15.5223 7.00046 15.3536 6.89157 15.1126 6.77033L15.1131 6.76938Z" fill="#1F1F1F"/>
<path d="M9.8707 8.83112C8.07837 8.80645 6.39182 8.52663 5.12049 8.04299C4.83518 7.93424 4.59889 7.82496 4.40158 7.72089C4.60252 7.62161 4.8444 7.51894 5.1329 7.41812C6.42328 6.96828 8.12108 6.73422 9.91341 6.75889C11.7057 6.78356 13.3923 7.06337 14.6636 7.54702C14.9489 7.65577 15.1867 7.76457 15.3835 7.8696C15.1825 7.96887 14.9407 8.07155 14.6507 8.17285C13.3604 8.62268 11.6626 8.85674 9.87022 8.83207L9.8707 8.83112Z" fill="#F7F5F0"/>
<path d="M4.31526 8.15717C4.27636 8.1376 4.23746 8.11803 4.19999 8.09798C4.05961 8.02255 3.97249 7.87433 3.97585 7.71405C3.97921 7.55376 4.07195 7.40725 4.21561 7.33674C4.44853 7.22116 4.71139 7.11224 4.99655 7.01334C6.3327 6.54814 8.08242 6.30541 9.92185 6.33098C11.7627 6.35607 13.5001 6.64587 14.8161 7.14716C15.0976 7.254 15.3553 7.37044 15.5834 7.49122C15.7238 7.56664 15.8109 7.71486 15.8075 7.87515C15.8042 8.03543 15.7114 8.18195 15.5673 8.25341C15.3348 8.36803 15.072 8.47695 14.7864 8.57681C13.4502 9.04201 11.7005 9.28474 9.86104 9.25917C8.02113 9.23456 6.28277 8.94428 4.96683 8.44299C4.73231 8.3538 4.51306 8.25789 4.31478 8.15813L4.31526 8.15717ZM14.2541 7.85306C13.0608 7.44349 11.5305 7.20751 9.90566 7.18551C8.28081 7.16351 6.74075 7.35815 5.53219 7.73517C6.72545 8.14474 8.25668 8.3812 9.88058 8.40272C11.5054 8.42472 13.0455 8.23008 14.2541 7.85306Z" fill="#1F1F1F"/>
<path d="M9.21505 8.80301C11.247 8.62071 13.6377 7.68537 15.0452 5.91105C16.1467 4.52271 17.3077 5.14524 17.5927 5.78172C18.0503 6.80267 17.2848 7.64134 16.3468 7.88694C12.575 8.87367 10.5289 9.01772 9.21552 8.80445L9.21505 8.80301Z" fill="#F7F5F0"/>
<path d="M5.79055 8.68066L9.17992 8.37618C10.932 8.2186 13.3056 7.41869 14.7126 5.64532C15.4823 4.67555 16.2659 4.61146 16.6634 4.66027C17.2373 4.72945 17.7537 5.09964 17.9795 5.60318C18.2109 6.11915 18.212 6.64401 17.983 7.12034C17.7155 7.67805 17.1418 8.11891 16.4488 8.30058C13.0497 9.18927 10.7272 9.48339 9.14234 9.22595L5.78912 8.68114L5.79055 8.68066ZM16.8342 5.59449C16.7517 5.55296 16.6576 5.52245 16.5559 5.50965C16.1669 5.46274 15.7596 5.69336 15.3765 6.17609C14.6619 7.07643 13.7332 7.75262 12.7505 8.23846C13.7517 8.07508 14.9081 7.82061 16.2417 7.47167C16.6868 7.35488 17.0606 7.07981 17.2178 6.75332C17.3349 6.50869 17.3299 6.2422 17.2036 5.95911C17.1454 5.82904 17.0154 5.68566 16.8342 5.59449Z" fill="#1F1F1F"/>
</svg>
