<svg width="30" height="30" viewBox="0 0 30 30" fill="none" xmlns="http://www.w3.org/2000/svg">
<path d="M8.5762 25.3425C8.02775 25.737 7.26294 25.3451 7.26294 24.6695V8.09263C7.26294 6.10847 8.87141 4.5 10.8556 4.5H19.1445C21.1286 4.5 22.7371 6.10847 22.7371 8.09263V24.6695C22.7371 25.3451 21.9723 25.737 21.4238 25.3425L15 20.7207L8.5762 25.3425ZM21.0789 8.09263C21.0789 7.02424 20.2128 6.15813 19.1445 6.15813H10.8556C9.78717 6.15813 8.92107 7.02424 8.92107 8.09263V23.0516L14.5158 19.0264C14.8051 18.8183 15.195 18.8183 15.4842 19.0264L21.0789 23.0516V8.09263Z" fill="#1F1F1F" stroke="#1F1F1F" stroke-width="0.3"/>
</svg>
