<svg width="60" height="60" viewBox="0 0 60 60" fill="none" xmlns="http://www.w3.org/2000/svg">
<path d="M21.0001 30C21.0001 25.0294 25.0295 21 30.0001 21C34.9706 21 39.0001 25.0294 39.0001 30C39.0001 34.9706 34.9706 39 30.0001 39C25.0295 39 21.0001 34.9706 21.0001 30ZM20.3511 8.4793C21.115 6.9593 22.6707 6 24.3719 6H35.6645C37.3691 6 38.9274 6.96318 39.6896 8.48791L41.4443 11.9982H46.5142C50.6563 11.9982 54.0142 15.3561 54.0142 19.4982V43.5C54.0142 47.6421 50.6563 51 46.5142 51H13.5142C9.37202 51 6.01416 47.6421 6.01416 43.5V19.4982C6.01416 15.3561 9.37203 11.9982 13.5142 11.9982H18.5826L20.3511 8.4793ZM30.0001 18C23.3726 18 18.0001 23.3726 18.0001 30C18.0001 36.6274 23.3726 42 30.0001 42C36.6275 42 42.0001 36.6274 42.0001 30C42.0001 23.3726 36.6275 18 30.0001 18Z" fill="#1F1F1F"/>
</svg>
