<svg width="62" height="68" viewBox="0 0 62 68" fill="none" xmlns="http://www.w3.org/2000/svg">
<circle cx="31" cy="36.1367" r="31" fill="#FFD800"/>
<ellipse cx="28.33" cy="51.6018" rx="1.17571" ry="1.67064" fill="#1F1F1F"/>
<ellipse cx="33.6591" cy="51.6018" rx="1.17571" ry="1.67064" fill="#1F1F1F"/>
<path d="M49.5494 38.7802C49.5494 38.1194 49.2082 37.3766 48.3457 36.5855C47.4824 35.7937 46.1758 35.033 44.4739 34.3728C41.0767 33.055 36.3132 32.2177 30.9998 32.2177C25.6863 32.2177 20.9228 33.055 17.5257 34.3728C15.8238 35.033 14.5172 35.7937 13.6538 36.5855C12.7913 37.3766 12.4501 38.1194 12.4501 38.7802C12.4501 39.441 12.7913 40.1839 13.6538 40.975C14.5172 41.7668 15.8238 42.5273 17.5257 43.1875C20.9228 44.5053 25.6863 45.3428 30.9998 45.3428C36.3133 45.3428 41.0767 44.5053 44.4739 43.1875C46.1757 42.5273 47.4824 41.7668 48.3457 40.975C49.2082 40.1839 49.5494 39.441 49.5494 38.7802ZM51.6211 38.7802C51.6211 40.2175 50.8661 41.4733 49.7465 42.5001C48.6277 43.5262 47.066 44.4027 45.2236 45.1174C41.5322 46.5494 36.503 47.413 30.9998 47.413C25.4965 47.413 20.4673 46.5494 16.7759 45.1174C14.9335 44.4027 13.3719 43.5262 12.253 42.5001C11.1334 41.4733 10.3784 40.2175 10.3784 38.7802C10.3784 37.343 11.1334 36.0872 12.253 35.0603C13.3719 34.0342 14.9335 33.1576 16.7759 32.4429C20.4673 31.0109 25.4965 30.1475 30.9998 30.1475C36.503 30.1475 41.5322 31.0109 45.2236 32.4429C47.066 33.1576 48.6277 34.0342 49.7465 35.0603C50.8661 36.0872 51.6211 37.343 51.6211 38.7802Z" fill="#1F1F1F"/>
<path d="M31.0002 37.9493C35.6283 37.9493 39.9995 38.6097 43.3059 39.8063C44.0475 40.0754 44.667 40.3466 45.1786 40.6095C45.6779 40.3549 46.0778 40.1085 46.3947 39.8849C47.1592 39.3405 47.1592 38.2163 46.3947 37.6719C45.7525 37.2144 44.7685 36.674 43.3059 36.1441C39.9995 34.9454 35.6283 34.2871 31.0002 34.2871C26.3721 34.2871 22.0009 34.9475 18.6945 36.1441C17.2091 36.6823 16.2189 37.2309 15.5767 37.6926C14.8371 38.2226 14.8371 39.3343 15.5767 39.8642C15.8978 40.094 16.3059 40.3466 16.8197 40.6095C17.3334 40.3466 17.9508 40.0754 18.6945 39.8063C22.0009 38.6076 26.3721 37.9493 31.0002 37.9493Z" fill="#1F1F1F"/>
<path d="M31.0004 33.2524C35.7127 33.2524 40.2099 33.921 43.6592 35.1714L43.9411 35.2757C45.3241 35.7989 46.3088 36.3397 46.9961 36.8294L47.0581 36.8751C48.3396 37.8484 48.319 39.7859 46.9961 40.7282L46.9941 40.7296L46.9923 40.731C46.6329 40.9845 46.1905 41.256 45.6498 41.5318L45.177 41.773L44.7052 41.5304C44.2377 41.2902 43.6594 41.036 42.9534 40.7798V40.78C39.7894 39.6349 35.5439 38.9849 31.0004 38.9849C26.4565 38.9849 22.2113 39.6329 19.0479 40.7798L19.0473 40.78C18.3404 41.0358 17.7633 41.29 17.2919 41.5312L16.8199 41.7728L16.3477 41.5312C15.7927 41.2472 15.3403 40.9685 14.9738 40.7062L14.9732 40.7058C13.6577 39.7631 13.6574 37.7959 14.9722 36.8526H14.972C15.7061 36.3249 16.7852 35.7354 18.3416 35.1714L18.3421 35.1712C21.7908 33.9232 26.2878 33.2524 31.0004 33.2524ZM31.0004 35.3226C26.4571 35.3226 22.2115 35.9725 19.0475 37.1175L19.0477 37.1177C17.6336 37.6301 16.7321 38.1377 16.1818 38.5333L16.1804 38.5343C16.0173 38.6512 16.0172 38.906 16.18 39.0231L16.2874 39.0983C16.4464 39.2073 16.6312 39.3239 16.845 39.4465C17.2861 39.2415 17.7825 39.036 18.3421 38.8335C21.7913 37.5832 26.2884 36.9147 31.0004 36.9147C35.5658 36.9147 39.9287 37.544 43.3323 38.7181L43.6588 38.8335L43.6596 38.8337C44.2163 39.0357 44.7128 39.2413 45.1541 39.4465C45.4054 39.3026 45.6175 39.1664 45.795 39.0413C45.9785 38.9093 45.9781 38.6467 45.7936 38.5153V38.5151C45.2424 38.1224 44.3458 37.6224 42.953 37.1177L42.9528 37.1175C39.7894 35.9707 35.5443 35.3226 31.0004 35.3226Z" fill="#1F1F1F"/>
<path d="M30.9999 43.2726C35.628 43.2726 39.9992 42.6122 43.3055 41.4156C44.0472 41.1465 44.6666 40.8753 45.1783 40.6124C44.6646 40.3494 44.0472 40.0782 43.3055 39.8091C39.9992 38.6105 35.628 37.9521 30.9999 37.9521C26.3718 37.9521 22.0006 38.6125 18.6942 39.8091C17.9525 40.0782 17.3331 40.3494 16.8193 40.6124C17.3331 40.8753 17.9505 41.1465 18.6942 41.4156C22.0006 42.6142 26.3718 43.2726 30.9999 43.2726Z" fill="#F7F5F0"/>
<path d="M31.0001 36.917C35.7123 36.917 40.2096 37.5855 43.6589 38.836L43.6593 38.8362C44.4372 39.1185 45.0946 39.4064 45.6506 39.6909C45.9964 39.8679 46.2139 40.2233 46.2143 40.6114C46.2146 40.9996 45.9977 41.3554 45.6523 41.5329C45.0965 41.8184 44.4362 42.1065 43.6593 42.3885L43.6585 42.3889C40.2098 43.637 35.7128 44.3076 31.0001 44.3076C26.2878 44.3076 21.7904 43.6391 18.3411 42.3887V42.3885C17.5609 42.1061 16.9033 41.8182 16.3473 41.5337C16.0013 41.3566 15.7837 41.0007 15.7837 40.6122C15.7837 40.2238 16.0013 39.868 16.3473 39.6909C16.9041 39.406 17.5638 39.1182 18.3409 38.8362L18.3417 38.8358C21.7904 37.5877 26.2874 36.917 31.0001 36.917ZM31.0001 38.9872C26.6871 38.9872 22.6427 39.5735 19.537 40.6124C22.6422 41.6528 26.6864 42.2374 31.0001 42.2374C35.3131 42.2374 39.3573 41.6509 42.463 40.612C39.3578 39.5717 35.3137 38.9872 31.0001 38.9872Z" fill="#1F1F1F"/>
<path d="M49.652 42.3471L47.5554 50.0483C46.771 52.9315 44.7205 55.3102 41.973 56.5001C34.6708 59.6612 27.331 59.6611 20.0268 56.5001C17.2793 55.3102 15.2284 52.9315 14.444 50.0483L12.3477 42.3471L14.3465 41.8037L16.443 49.5049L16.4432 49.5051C17.0634 51.7848 18.6838 53.6623 20.8502 54.6005C27.6291 57.5342 34.3725 57.5341 41.1492 54.6005L41.2504 54.5559C43.366 53.6035 44.9459 51.7492 45.5564 49.5051L47.6529 41.8037L49.652 42.3471Z" fill="#1F1F1F"/>
<mask id="path-10-outside-1_1354_17040" maskUnits="userSpaceOnUse" x="10.917" y="0" width="41" height="26" fill="black">
<rect fill="white" x="10.917" width="41" height="26"/>
<path d="M40.4199 1C45.7563 1.00018 50.082 5.32669 50.082 10.6631C50.0818 15.9993 45.7561 20.325 40.4199 20.3252H33.8125L31.4336 24.4453C31.2412 24.7785 30.76 24.7791 30.5674 24.4463L28.1875 20.3252H21.5801C16.2437 20.3252 11.9182 15.9994 11.918 10.6631C11.918 5.32658 16.2436 1.00001 21.5801 1H40.4199Z"/>
</mask>
<path d="M40.4199 1C45.7563 1.00018 50.082 5.32669 50.082 10.6631C50.0818 15.9993 45.7561 20.325 40.4199 20.3252H33.8125L31.4336 24.4453C31.2412 24.7785 30.76 24.7791 30.5674 24.4463L28.1875 20.3252H21.5801C16.2437 20.3252 11.9182 15.9994 11.918 10.6631C11.918 5.32658 16.2436 1.00001 21.5801 1H40.4199Z" fill="white"/>
<path d="M40.4199 1L40.42 0H40.4199V1ZM50.082 10.6631L51.082 10.6631V10.6631H50.082ZM40.4199 20.3252V21.3252H40.42L40.4199 20.3252ZM33.8125 20.3252V19.3252H33.2352L32.9465 19.8252L33.8125 20.3252ZM31.4336 24.4453L30.5676 23.9453L30.5676 23.9453L31.4336 24.4453ZM30.5674 24.4463L29.7014 24.9464L29.7019 24.9472L30.5674 24.4463ZM28.1875 20.3252L29.0535 19.8251L28.7648 19.3252H28.1875V20.3252ZM21.5801 20.3252L21.5801 21.3252H21.5801V20.3252ZM11.918 10.6631H10.918V10.6631L11.918 10.6631ZM21.5801 1V0H21.5801L21.5801 1ZM40.4199 1L40.4199 2C45.2039 2.00016 49.082 5.87888 49.082 10.6631H50.082H51.082C51.082 4.7745 46.3087 0.000201464 40.42 0L40.4199 1ZM50.082 10.6631L49.082 10.663C49.0818 15.447 45.2038 19.325 40.4199 19.3252L40.4199 20.3252L40.42 21.3252C46.3084 21.325 51.0817 16.5515 51.082 10.6631L50.082 10.6631ZM40.4199 20.3252V19.3252H33.8125V20.3252V21.3252H40.4199V20.3252ZM33.8125 20.3252L32.9465 19.8252L30.5676 23.9453L31.4336 24.4453L32.2996 24.9453L34.6785 20.8252L33.8125 20.3252ZM31.4336 24.4453L30.5676 23.9453C30.759 23.6138 31.2392 23.6108 31.4329 23.9454L30.5674 24.4463L29.7019 24.9472C30.2808 25.9475 31.7235 25.9431 32.2996 24.9453L31.4336 24.4453ZM30.5674 24.4463L31.4334 23.9462L29.0535 19.8251L28.1875 20.3252L27.3215 20.8253L29.7014 24.9464L30.5674 24.4463ZM28.1875 20.3252V19.3252H21.5801V20.3252V21.3252H28.1875V20.3252ZM21.5801 20.3252L21.5801 19.3252C16.7961 19.3252 12.9182 15.4471 12.918 10.663L11.918 10.6631L10.918 10.6631C10.9183 16.5516 15.6914 21.3252 21.5801 21.3252L21.5801 20.3252ZM11.918 10.6631H12.918C12.918 5.87873 16.796 2 21.5801 2L21.5801 1L21.5801 0C15.6912 5.60284e-06 10.918 4.77442 10.918 10.6631H11.918ZM21.5801 1V2H40.4199V1V0H21.5801V1Z" fill="#1F1F1F" mask="url(#path-10-outside-1_1354_17040)"/>
<circle cx="24.033" cy="10.6624" r="1.48318" fill="#1F1F1F"/>
<circle cx="30.9993" cy="10.6624" r="1.48318" fill="#1F1F1F"/>
<circle cx="37.9656" cy="10.6624" r="1.48318" fill="#1F1F1F"/>
</svg>
