<svg width="16" height="16" viewBox="0 0 16 16" fill="none" xmlns="http://www.w3.org/2000/svg">
<path fill-rule="evenodd" clip-rule="evenodd" d="M14.6282 0.759823C14.1415 0.273309 13.4815 0 12.7934 0C12.1052 0 11.4452 0.273309 10.9586 0.759823L10.347 1.37228L14.6291 5.65426L15.2398 5.04267C15.4808 4.80168 15.672 4.51558 15.8025 4.20069C15.9329 3.88581 16.0001 3.54831 16.0001 3.20747C16.0001 2.86664 15.9329 2.52914 15.8025 2.21425C15.672 1.89937 15.4808 1.61326 15.2398 1.37228L14.6282 0.759823ZM13.405 6.87744L9.12289 2.59545L1.2594 10.4596C1.08732 10.6317 0.967115 10.8487 0.912506 11.0859L0.0223485 14.9397C-0.0108192 15.0827 -0.00701472 15.2319 0.0334034 15.3731C0.0738216 15.5143 0.149523 15.6429 0.253373 15.7467C0.357224 15.8506 0.485806 15.9263 0.627002 15.9667C0.768198 16.0071 0.91736 16.0109 1.06043 15.9777L4.91519 15.0885C5.15205 15.0337 5.36876 14.9135 5.54064 14.7416L13.405 6.87744Z" fill="#1F1F1F"/>
</svg>
