<svg width="26" height="26" viewBox="0 0 26 26" fill="none" xmlns="http://www.w3.org/2000/svg">
<path d="M14.5717 2.74436C13.6639 1.97844 12.3361 1.97844 11.4283 2.74436L4.11575 8.91344C3.56677 9.37658 3.25 10.0583 3.25 10.7765V20.8571C3.25 21.9041 4.09879 22.7529 5.14583 22.7529H8.39583C9.44287 22.7529 10.2917 21.9041 10.2917 20.8571V16.5209C10.2917 15.785 10.8787 15.1862 11.61 15.1672H14.39C15.1213 15.1862 15.7083 15.785 15.7083 16.5209V20.8571C15.7083 21.9041 16.5571 22.7529 17.6042 22.7529H20.8542C21.9012 22.7529 22.75 21.9041 22.75 20.8571V10.7765C22.75 10.0583 22.4332 9.37658 21.8842 8.91344L14.5717 2.74436Z" fill="#1F1F1F"/>
</svg>
