<svg width="26" height="26" viewBox="0 0 26 26" fill="none" xmlns="http://www.w3.org/2000/svg">
<path d="M11.4286 2.74305C12.3364 1.97758 13.6636 1.97758 14.5714 2.74305L21.8839 8.9095C22.4331 9.37264 22.75 10.0545 22.75 10.7729L22.75 20.8586C22.75 21.9056 21.9012 22.7544 20.8542 22.7544H17.0625C16.0155 22.7544 15.1667 21.9056 15.1667 20.8586L15.1667 15.4342C15.1667 15.2847 15.0454 15.1634 14.8958 15.1634H11.1042C10.9546 15.1634 10.8333 15.2847 10.8333 15.4342L10.8333 20.8586C10.8333 21.9056 9.98454 22.7544 8.9375 22.7544H5.14583C4.09879 22.7544 3.25 21.9056 3.25 20.8586V10.7729C3.25 10.0545 3.56693 9.37264 4.11614 8.9095L11.4286 2.74305ZM13.5238 3.98531C13.2212 3.73016 12.7788 3.73016 12.4762 3.98531L5.16371 10.1518C4.98064 10.3061 4.875 10.5334 4.875 10.7729L4.875 20.8586C4.875 21.0081 4.99626 21.1294 5.14583 21.1294H8.9375C9.08707 21.1294 9.20833 21.0081 9.20833 20.8586L9.20833 15.4342C9.20833 14.3872 10.0571 13.5384 11.1042 13.5384H14.8958C15.9429 13.5384 16.7917 14.3872 16.7917 15.4342L16.7917 20.8586C16.7917 21.0081 16.9129 21.1294 17.0625 21.1294H20.8542C21.0037 21.1294 21.125 21.0081 21.125 20.8586L21.125 10.7729C21.125 10.5334 21.0194 10.3061 20.8363 10.1518L13.5238 3.98531Z" fill="#DEDCD8"/>
</svg>
