<svg width="26" height="26" viewBox="0 0 26 26" fill="none" xmlns="http://www.w3.org/2000/svg">
<path d="M9.47917 14.0833C10.8254 14.0833 11.9167 15.1746 11.9167 16.5208V20.3125C11.9167 21.6587 10.8254 22.75 9.47917 22.75H5.6875C4.34131 22.75 3.25 21.6587 3.25 20.3125V16.5208C3.25 15.1746 4.34131 14.0833 5.6875 14.0833H9.47917ZM20.3125 14.0833C21.6587 14.0833 22.75 15.1746 22.75 16.5208V20.3125C22.75 21.6587 21.6587 22.75 20.3125 22.75H16.5208C15.1746 22.75 14.0833 21.6587 14.0833 20.3125V16.5208C14.0833 15.1746 15.1746 14.0833 16.5208 14.0833H20.3125ZM9.47917 3.25C10.8254 3.25 11.9167 4.34131 11.9167 5.6875V9.47917C11.9167 10.8254 10.8254 11.9167 9.47917 11.9167H5.6875C4.34131 11.9167 3.25 10.8254 3.25 9.47917V5.6875C3.25 4.34131 4.34131 3.25 5.6875 3.25H9.47917ZM20.3125 3.25C21.6587 3.25 22.75 4.34131 22.75 5.6875V9.47917C22.75 10.8254 21.6587 11.9167 20.3125 11.9167H16.5208C15.1746 11.9167 14.0833 10.8254 14.0833 9.47917V5.6875C14.0833 4.34131 15.1746 3.25 16.5208 3.25H20.3125Z" fill="#1F1F1F"/>
</svg>
