<svg width="28" height="38" viewBox="0 0 28 38" fill="none" xmlns="http://www.w3.org/2000/svg">
<ellipse opacity="0.3" cx="14" cy="33.9995" rx="8.57031" ry="3.46338" fill="#1F1F1F"/>
<path d="M28 14C28 21.7278 20.2934 29.5382 16.3158 33.0547C14.9773 34.2381 13.0227 34.2381 11.6842 33.0547C7.70659 29.5382 0 21.7278 0 14C0 6.26801 6.26801 0 14 0C21.732 0 28 6.26801 28 14Z" fill="#FFD800"/>
<circle cx="13.8599" cy="14.25" r="11.4233" fill="#F7F5F0"/>
<path d="M20.7153 13.4396L19.8414 16.429C19.5487 17.4313 18.82 18.2512 17.8606 18.6528C15.1094 19.8039 12.383 19.7664 9.68113 18.5415C8.73827 18.1139 8.04489 17.2755 7.79367 16.2648L7.04417 13.2529" fill="#FFD800"/>
<path d="M9.36382 18.866C8.37238 18.3672 7.65321 17.4666 7.38156 16.3737L6.63206 13.3618L7.45752 13.1483L8.20702 16.1603C8.429 17.0518 9.03123 17.7784 9.85926 18.153C12.4373 19.3216 15.0751 19.3578 17.6999 18.2595C18.5434 17.9063 19.1749 17.197 19.433 16.313L20.3069 13.3235L21.1239 13.5594L20.25 16.5489C19.9176 17.6846 19.1059 18.5961 18.0215 19.05C15.1696 20.2428 12.3048 20.2041 9.50425 18.9342C9.4568 18.9127 9.40983 18.8903 9.36334 18.8669L9.36382 18.866Z" fill="#1F1F1F"/>
<path d="M13.8454 15.0236C18.0338 15.0807 21.4568 13.8018 21.4908 12.167C21.5249 10.5323 18.157 9.16067 13.9686 9.1035C9.78017 9.04634 6.35719 10.3252 6.32316 11.96C6.28914 13.5948 9.65696 14.9664 13.8454 15.0236Z" fill="#FFD800"/>
<path d="M7.79184 14.2387C6.58409 13.631 5.87902 12.8372 5.89825 11.953C5.93819 10.0209 9.41142 8.61159 13.9777 8.67364C16.0545 8.70228 18.0071 9.04637 19.4762 9.64509C21.071 10.2939 21.9377 11.1919 21.917 12.1713C21.8962 13.1507 20.9929 14.0245 19.3723 14.6297C17.88 15.1879 15.9144 15.4792 13.8375 15.4506C11.3615 15.4167 9.2235 14.959 7.79184 14.2387ZM6.7485 11.9644C6.72354 13.1625 9.63579 14.5365 13.8547 14.5941C15.8293 14.6205 17.6853 14.3485 19.0808 13.8267C20.3117 13.3674 21.0536 12.7436 21.0657 12.1594C21.0779 11.5752 20.3624 10.932 19.1506 10.4387C17.777 9.87963 15.9336 9.55694 13.9596 9.52962C9.74065 9.47194 6.77298 10.7673 6.7485 11.9644Z" fill="#1F1F1F"/>
<path d="M13.914 11.7407C12.1216 11.716 10.4238 11.9501 9.13345 12.3999C8.84352 12.5012 8.60212 12.6029 8.40213 12.7027C8.211 12.6005 8.0579 12.5031 7.93759 12.4138C7.6458 12.1974 7.65468 11.7591 7.95525 11.5516C8.20804 11.3776 8.59236 11.1714 9.16316 10.9727C10.4535 10.5228 12.1513 10.2888 13.9437 10.3134C15.736 10.3381 17.4226 10.6179 18.6939 11.1016C19.2645 11.3191 19.6429 11.5382 19.8882 11.7217C20.1701 11.9318 20.1612 12.3653 19.8702 12.5681C19.744 12.6558 19.5835 12.7526 19.3826 12.8519C19.1858 12.7468 18.9481 12.638 18.6627 12.5293C17.3919 12.0447 15.7053 11.7649 13.9125 11.7412L13.914 11.7407Z" fill="#1F1F1F"/>
<path d="M8.39224 13.1821L8.2011 13.08C8.00712 12.9764 7.83315 12.8685 7.68442 12.7576C7.43668 12.5742 7.29288 12.2811 7.29953 11.9725C7.30619 11.6639 7.46118 11.3747 7.71636 11.1983C8.05374 10.9649 8.4952 10.7515 9.02784 10.5671C10.364 10.1019 12.1137 9.85919 13.9532 9.88476C15.7931 9.90938 17.5314 10.1997 18.8474 10.7009C19.3781 10.9032 19.8145 11.1299 20.1432 11.3769C20.3853 11.5575 20.5257 11.8477 20.5196 12.153C20.5134 12.4582 20.3608 12.745 20.1118 12.9185C19.9546 13.0278 19.7727 13.1342 19.5698 13.2349L19.3737 13.3318L19.1825 13.2296C18.9857 13.1246 18.7598 13.023 18.5111 12.929C17.2848 12.4621 15.6496 12.1913 13.9053 12.168C12.1611 12.1447 10.5152 12.3701 9.27106 12.8036C9.0188 12.8915 8.78934 12.986 8.58792 13.0862L8.39176 13.1831L8.39224 13.1821ZM19.1131 11.7513C18.9556 11.6721 18.7663 11.5876 18.5408 11.5018C17.3145 11.0348 15.6793 10.764 13.935 10.7407C12.1908 10.7174 10.5449 10.9428 9.30076 11.3763C8.72853 11.5756 8.38329 11.7726 8.19501 11.9035C8.15869 11.9284 8.1504 11.9614 8.15025 11.9853C8.1501 12.0093 8.15609 12.0423 8.19161 12.0685C8.26077 12.1201 8.33849 12.1712 8.42335 12.2223C8.60133 12.1427 8.79404 12.0669 8.99766 11.9953C10.3338 11.5301 12.0831 11.2884 13.923 11.313C15.7638 11.3381 17.5012 11.6279 18.8172 12.1292C19.0189 12.2055 19.2074 12.2871 19.3824 12.3715C19.4731 12.3212 19.5553 12.2689 19.6298 12.2177C19.6609 12.1961 19.6682 12.165 19.6679 12.142C19.6685 12.1195 19.6625 12.0889 19.6327 12.0655C19.5223 11.9824 19.3536 11.8735 19.1126 11.7523L19.1131 11.7513Z" fill="#1F1F1F"/>
<path d="M13.8707 13.813C12.0784 13.7884 10.3918 13.5086 9.12049 13.0249C8.83518 12.9162 8.59889 12.8069 8.40158 12.7028C8.60252 12.6035 8.8444 12.5009 9.1329 12.4001C10.4233 11.9502 12.1211 11.7162 13.9134 11.7408C15.7057 11.7655 17.3923 12.0453 18.6636 12.5289C18.9489 12.6377 19.1867 12.7465 19.3835 12.8515C19.1825 12.9508 18.9407 13.0535 18.6507 13.1548C17.3604 13.6046 15.6626 13.8387 13.8702 13.814L13.8707 13.813Z" fill="#F7F5F0"/>
<path d="M8.31526 13.1391C8.27636 13.1195 8.23746 13.1 8.19999 13.0799C8.05961 13.0045 7.97249 12.8563 7.97585 12.696C7.97921 12.5357 8.07195 12.3892 8.21561 12.3187C8.44853 12.2031 8.71139 12.0942 8.99655 11.9953C10.3327 11.5301 12.0824 11.2873 13.9219 11.3129C15.7627 11.338 17.5001 11.6278 18.8161 12.1291C19.0976 12.2359 19.3553 12.3524 19.5834 12.4731C19.7238 12.5486 19.8109 12.6968 19.8075 12.8571C19.8042 13.0174 19.7114 13.1639 19.5673 13.2353C19.3348 13.35 19.072 13.4589 18.7864 13.5587C17.4502 14.0239 15.7005 14.2667 13.861 14.2411C12.0211 14.2165 10.2828 13.9262 8.96683 13.4249C8.73231 13.3357 8.51306 13.2398 8.31478 13.1401L8.31526 13.1391ZM18.2541 12.835C17.0608 12.4254 15.5305 12.1894 13.9057 12.1674C12.2808 12.1454 10.7408 12.3401 9.53219 12.7171C10.7255 13.1267 12.2567 13.3631 13.8806 13.3847C15.5054 13.4067 17.0455 13.212 18.2541 12.835Z" fill="#1F1F1F"/>
<path d="M13.2151 13.7849C15.247 13.6026 17.6377 12.6673 19.0452 10.893C20.1467 9.50464 21.3077 10.1272 21.5927 10.7637C22.0503 11.7846 21.2848 12.6233 20.3468 12.8689C16.575 13.8556 14.5289 13.9996 13.2155 13.7864L13.2151 13.7849Z" fill="#F7F5F0"/>
<path d="M9.79055 13.6626L13.1799 13.3581C14.932 13.2005 17.3056 12.4006 18.7126 10.6273C19.4823 9.65748 20.2659 9.5934 20.6634 9.64221C21.2373 9.71138 21.7537 10.0816 21.9795 10.5851C22.2109 11.1011 22.212 11.6259 21.983 12.1023C21.7155 12.66 21.1418 13.1008 20.4488 13.2825C17.0497 14.1712 14.7272 14.4653 13.1423 14.2079L9.78912 13.6631L9.79055 13.6626ZM20.8342 10.5764C20.7517 10.5349 20.6576 10.5044 20.5559 10.4916C20.1669 10.4447 19.7596 10.6753 19.3765 11.158C18.6619 12.0584 17.7332 12.7346 16.7505 13.2204C17.7517 13.057 18.9081 12.8025 20.2417 12.4536C20.6868 12.3368 21.0606 12.0617 21.2178 11.7353C21.3349 11.4906 21.3299 11.2241 21.2036 10.941C21.1454 10.811 21.0154 10.6676 20.8342 10.5764Z" fill="#1F1F1F"/>
</svg>
