<svg width="28" height="38" viewBox="0 0 28 38" fill="none" xmlns="http://www.w3.org/2000/svg">
<ellipse opacity="0.3" cx="14" cy="33.9995" rx="8.57031" ry="3.46338" fill="#1F1F1F"/>
<path d="M28 14C28 21.7278 20.2934 29.5382 16.3158 33.0547C14.9773 34.2381 13.0227 34.2381 11.6842 33.0547C7.70659 29.5382 0 21.7278 0 14C0 6.26801 6.26801 0 14 0C21.732 0 28 6.26801 28 14Z" fill="#FFD800"/>
<circle cx="13.8599" cy="14.25" r="11.4233" fill="#F7F5F0"/>
<path d="M7.17798 13.5137L8.0766 16.511C8.37729 17.5158 9.11361 18.3333 10.0796 18.7271C12.8475 19.8562 15.5808 19.791 18.2818 18.532C19.2241 18.0929 19.9131 17.2414 20.1579 16.224L20.8875 13.1873" fill="#FFD800"/>
<path d="M16.599 19.6067C14.3947 20.1985 12.1564 20.0383 9.92045 19.1263C8.83027 18.6812 8.00883 17.7728 7.66774 16.634L6.76911 13.6367L7.58673 13.3915L8.48535 16.3889C8.75113 17.276 9.39029 17.9825 10.2386 18.3287C12.8789 19.4063 15.5245 19.3435 18.1016 18.1411C18.9299 17.7549 19.5286 17.0191 19.7436 16.1211L20.4732 13.0845L21.3027 13.2908L20.5731 16.3275C20.2963 17.4806 19.5268 18.4272 18.4627 18.9224C17.8455 19.2107 17.224 19.4377 16.5998 19.6053L16.599 19.6067Z" fill="#1F1F1F"/>
<path d="M21.6023 11.8799C21.5564 10.2365 18.1144 8.9851 13.9143 9.08473C9.71419 9.18437 6.34649 10.5974 6.39233 12.2407C6.43818 13.8841 9.88021 15.1355 14.0803 15.0359C18.2804 14.9363 21.6481 13.5233 21.6023 11.8799Z" fill="#FFD800"/>
<path d="M18.1813 14.9142C16.9659 15.2406 15.5609 15.4328 14.0928 15.4681C12.0103 15.518 10.0363 15.2444 8.53597 14.6988C6.90606 14.1067 5.99348 13.2373 5.96551 12.2529C5.91139 10.3116 9.32356 8.76464 13.9024 8.65528C15.985 8.60544 17.9589 8.87898 19.4593 9.42455C21.0892 10.0167 22.0015 10.8851 22.0298 11.8705C22.0577 12.8549 21.1948 13.7663 19.5998 14.4353C19.1662 14.6175 18.6912 14.7773 18.1823 14.914L18.1813 14.9142ZM10.0305 10.0403C8.01469 10.5816 6.79583 11.4504 6.81701 12.2327C6.83337 12.8201 7.58265 13.4391 8.81996 13.8893C10.2236 14.3995 12.0866 14.6549 14.067 14.6069C16.0466 14.5602 17.8936 14.2169 19.267 13.6398C20.4779 13.1319 21.1912 12.4779 21.1746 11.8895C21.1582 11.3021 20.409 10.683 19.1717 10.2329C17.768 9.72262 15.905 9.46723 13.9246 9.51526C12.441 9.55028 11.119 9.74698 10.0302 10.0393L10.0305 10.0403Z" fill="#1F1F1F"/>
<path d="M13.9882 11.7358C15.7856 11.6934 17.4895 11.9113 18.7867 12.3498C19.0783 12.4487 19.3204 12.5486 19.5224 12.6471C19.713 12.5424 19.8661 12.4422 19.9865 12.3519C20.2776 12.1323 20.2651 11.6909 19.9627 11.4857C19.7085 11.3122 19.3206 11.1098 18.7463 10.9163C17.4492 10.4777 15.7453 10.2599 13.9478 10.3023C12.1504 10.3446 10.4604 10.6435 9.19012 11.1439C8.61983 11.3683 8.24057 11.5928 7.99672 11.7786C7.71538 11.9934 7.7275 12.4293 8.02079 12.6292C8.14804 12.7165 8.30934 12.8113 8.51136 12.9098C8.70781 12.8024 8.9448 12.6898 9.23074 12.5784C10.5013 12.0791 12.1913 11.7802 13.9885 11.7368L13.9882 11.7358Z" fill="#1F1F1F"/>
<path d="M19.5359 13.1286L19.3391 13.0332C19.1371 12.9348 18.9057 12.842 18.6519 12.7564C17.4008 12.3333 15.7476 12.123 13.9995 12.1644C12.2505 12.206 10.6118 12.4944 9.38619 12.9762C9.13752 13.0741 8.91253 13.178 8.71504 13.2856L8.52346 13.3906L8.32668 13.2952C8.12233 13.1963 7.9383 13.0908 7.7801 12.9828C7.52954 12.8104 7.37435 12.5245 7.36577 12.2169C7.3572 11.9094 7.4962 11.6169 7.73724 11.4329C8.06525 11.1822 8.5018 10.949 9.03229 10.7409C10.3478 10.2238 12.0891 9.91456 13.9347 9.8704C15.7802 9.82624 17.5361 10.0525 18.8793 10.5065C19.4138 10.6873 19.8587 10.8966 20.1992 11.1284C20.456 11.3035 20.6144 11.5931 20.6235 11.9027C20.6327 12.2123 20.4904 12.509 20.2434 12.6957C20.0947 12.8081 19.9214 12.9192 19.7267 13.025L19.5351 13.1299L19.5359 13.1286ZM13.9753 11.3049C15.8209 11.2608 17.5767 11.487 18.9199 11.941C19.1253 12.0107 19.3185 12.0848 19.4974 12.1627C19.5818 12.111 19.6592 12.0579 19.7291 12.0057C19.7641 11.9796 19.7704 11.9456 19.7697 11.9224C19.769 11.8992 19.7611 11.8657 19.7236 11.8412C19.5331 11.7118 19.1858 11.5164 18.6105 11.3231C17.3595 10.9001 15.7062 10.6898 13.9582 10.7311C12.2091 10.7728 10.5704 11.0612 9.34482 11.5429C8.77452 11.7674 8.43647 11.9807 8.25307 12.1203C8.2227 12.1429 8.21685 12.1746 8.21756 12.1978C8.21799 12.2199 8.22533 12.2514 8.25759 12.2728C8.33211 12.3242 8.41542 12.3753 8.50594 12.4246C8.68027 12.3377 8.86995 12.2544 9.07057 12.1749C10.3871 11.6576 12.1274 11.3486 13.9729 11.3045L13.9753 11.3049Z" fill="#1F1F1F"/>
<path d="M14.0462 13.8196C15.8436 13.7772 17.5336 13.4784 18.8039 12.978C19.0896 12.8656 19.3258 12.7543 19.522 12.6459C19.32 12.5474 19.0765 12.4468 18.7862 12.3486C17.4891 11.9101 15.7852 11.6922 13.9877 11.7346C12.1902 11.777 10.5003 12.0758 9.22999 12.5762C8.94432 12.6886 8.70705 12.8002 8.5106 12.9076C8.71262 13.006 8.95609 13.1067 9.2474 13.2046C10.5445 13.6431 12.2484 13.861 14.0459 13.8186L14.0462 13.8196Z" fill="#F7F5F0"/>
<path d="M17.8647 13.7381C16.7409 14.0398 15.4283 14.2184 14.0578 14.2509C12.2122 14.2951 10.4564 14.0688 9.11312 13.6148C8.82546 13.5182 8.5614 13.4108 8.32675 13.2977C8.18197 13.2273 8.08777 13.0821 8.0841 12.9204C8.08043 12.7587 8.16501 12.6089 8.30563 12.5322C8.53384 12.4074 8.79115 12.2881 9.07297 12.1779C10.3895 11.6606 12.1298 11.3516 13.9754 11.3075C15.8209 11.2633 17.5768 11.4895 18.92 11.9435C19.2066 12.0404 19.4717 12.1476 19.7054 12.2609C19.8501 12.3313 19.9443 12.4765 19.948 12.6382C19.9527 12.7997 19.8671 12.9497 19.7265 13.0265C19.4983 13.1513 19.241 13.2705 18.9591 13.3807C18.6206 13.514 18.253 13.6338 17.8636 13.7384L17.8647 13.7381ZM9.64352 12.884C10.8595 13.2507 12.4053 13.4308 14.0335 13.3915C15.6631 13.3529 17.1963 13.0995 18.3899 12.6754C17.1739 12.3087 15.6281 12.1286 13.9999 12.1679C12.3703 12.2065 10.8371 12.4599 9.64352 12.884Z" fill="#1F1F1F"/>
<path d="M14.7038 13.7863C10.663 12.1609 11.5916 10.1864 9.48289 10.2744C8.12008 10.3316 8.13413 9.40508 7.18246 9.31958C6.23079 9.23407 5.55489 9.81786 5.72357 10.9561C5.86744 11.9238 6.60168 12.7008 7.54412 12.937C11.3347 13.8896 13.3868 14.014 14.7028 13.7866L14.7038 13.7863Z" fill="#F7F5F0"/>
<path d="M16.2665 13.9521L14.7776 14.2103C13.1895 14.4851 10.8594 14.2136 7.44279 13.3544C6.31071 13.07 5.47018 12.1522 5.30131 11.0173C5.17447 10.1665 5.45197 9.66182 5.70682 9.38945C6.05928 9.01174 6.5958 8.83426 7.21711 8.89033C7.76711 8.93992 8.08641 9.21194 8.34382 9.43035C8.63152 9.67519 8.86024 9.86899 9.46213 9.84447C10.6721 9.79376 11.1049 10.3529 11.6068 11.0005C12.12 11.6618 12.8216 12.5678 14.8579 13.3863L16.2641 13.9516L16.2665 13.9521ZM6.68383 9.77909C6.53859 9.81808 6.41877 9.88592 6.33026 9.97989C6.10204 10.2239 6.1044 10.6111 6.14587 10.8931C6.26142 11.6689 6.86407 12.3218 7.64577 12.5187C9.91958 13.0907 11.6811 13.3956 13.0364 13.4463C11.8913 12.7596 11.3573 12.0705 10.9368 11.5281C10.4806 10.9396 10.2729 10.6721 9.50294 10.7039C8.56716 10.7434 8.14019 10.3788 7.79669 10.0866C7.5748 9.89761 7.42739 9.77225 7.14682 9.74728C6.97594 9.73186 6.81877 9.74286 6.68486 9.77881L6.68383 9.77909Z" fill="#1F1F1F"/>
</svg>
