<svg width="32" height="40" viewBox="0 0 32 40" fill="none" xmlns="http://www.w3.org/2000/svg">
<ellipse opacity="0.3" cx="16" cy="35.9995" rx="8.57031" ry="3.46338" fill="#1F1F1F"/>
<path d="M16 1C24.2843 1 31 7.71573 31 16C31 20.1762 28.929 24.2706 26.46 27.6914C23.9759 31.133 20.9955 34.0205 18.9785 35.8037C17.2617 37.3215 14.7383 37.3215 13.0215 35.8037C11.0045 34.0205 8.02413 31.133 5.54004 27.6914C3.07095 24.2706 1 20.1762 1 16C1 7.71573 7.71573 1 16 1Z" fill="#FFD800" stroke="#1F1F1F" stroke-width="2"/>
<circle cx="15.8599" cy="16.25" r="11.4233" fill="#F7F5F0"/>
<path d="M9.17773 15.7817L10.0764 18.7791C10.377 19.7838 11.1134 20.6014 12.0793 20.9951C14.8473 22.1243 17.5806 22.0591 20.2816 20.8C21.2238 20.3609 21.9129 19.5095 22.1576 18.492L22.8872 15.4554" fill="#FFD800"/>
<path d="M18.599 21.8747C16.3947 22.4666 14.1564 22.3064 11.9204 21.3944C10.8303 20.9493 10.0088 20.0409 9.66774 18.9021L8.76911 15.9048L9.58673 15.6596L10.4854 18.657C10.7511 19.544 11.3903 20.2506 12.2386 20.5968C14.8789 21.6744 17.5245 21.6116 20.1016 20.4092C20.9299 20.023 21.5286 19.2872 21.7436 18.3892L22.4732 15.3525L23.3027 15.5589L22.5731 18.5955C22.2963 19.7486 21.5268 20.6952 20.4627 21.1905C19.8455 21.4788 19.224 21.7058 18.5998 21.8734L18.599 21.8747Z" fill="#1F1F1F"/>
<path d="M23.602 14.148C23.5562 12.5046 20.1142 11.2532 15.9141 11.3528C11.7139 11.4524 8.34624 12.8654 8.39209 14.5088C8.43793 16.1522 11.88 17.4036 16.0801 17.304C20.2802 17.2043 23.6479 15.7913 23.602 14.148Z" fill="#FFD800"/>
<path d="M20.1813 17.1823C18.9659 17.5086 17.5609 17.7009 16.0928 17.7362C14.0103 17.786 12.0363 17.5125 10.536 16.9669C8.90606 16.3748 7.99348 15.5053 7.96551 14.521C7.91139 12.5796 11.3236 11.0327 15.9024 10.9233C17.985 10.8735 19.9589 11.147 21.4593 11.6926C23.0892 12.2848 24.0015 13.1532 24.0298 14.1386C24.0577 15.1229 23.1948 16.0344 21.5998 16.7034C21.1662 16.8856 20.6912 17.0454 20.1823 17.182L20.1813 17.1823ZM12.0305 12.3084C10.0147 12.8496 8.79583 13.7185 8.81701 14.5007C8.83337 15.0881 9.58265 15.7072 10.82 16.1573C12.2236 16.6676 14.0866 16.923 16.067 16.8749C18.0466 16.8282 19.8936 16.485 21.267 15.9079C22.4779 15.4 23.1912 14.746 23.1746 14.1575C23.1582 13.5701 22.409 12.9511 21.1717 12.5009C19.768 11.9907 17.905 11.7353 15.9246 11.7833C14.441 11.8183 13.119 12.015 12.0302 12.3074L12.0305 12.3084Z" fill="#1F1F1F"/>
<path d="M15.9882 14.0038C17.7856 13.9614 19.4895 14.1793 20.7867 14.6179C21.0783 14.7168 21.3204 14.8167 21.5224 14.9151C21.713 14.8105 21.8661 14.7103 21.9865 14.62C22.2776 14.4003 22.2651 13.959 21.9627 13.7538C21.7085 13.5802 21.3206 13.3779 20.7463 13.1844C19.4492 12.7458 17.7453 12.5279 15.9478 12.5703C14.1504 12.6127 12.4604 12.9115 11.1901 13.412C10.6198 13.6364 10.2406 13.8608 9.99672 14.0467C9.71538 14.2615 9.7275 14.6973 10.0208 14.8972C10.148 14.9845 10.3093 15.0794 10.5114 15.1779C10.7078 15.0705 10.9448 14.9578 11.2307 14.8465C12.5013 14.3471 14.1913 14.0483 15.9885 14.0049L15.9882 14.0038Z" fill="#1F1F1F"/>
<path d="M21.5359 15.3967L21.3391 15.3013C21.1371 15.2028 20.9057 15.1101 20.6519 15.0244C19.4008 14.6014 17.7476 14.3911 15.9995 14.4324C14.2505 14.4741 12.6118 14.7625 11.3862 15.2442C11.1375 15.3422 10.9125 15.4461 10.715 15.5537L10.5235 15.6586L10.3267 15.5633C10.1223 15.4643 9.9383 15.3588 9.7801 15.2508C9.52954 15.0785 9.37435 14.7925 9.36577 14.485C9.3572 14.1775 9.4962 13.885 9.73724 13.701C10.0652 13.4502 10.5018 13.2171 11.0323 13.0089C12.3478 12.4919 14.0891 12.1826 15.9347 12.1385C17.7802 12.0943 19.5361 12.3205 20.8793 12.7745C21.4138 12.9554 21.8587 13.1647 22.1992 13.3964C22.456 13.5716 22.6144 13.8611 22.6235 14.1707C22.6327 14.4803 22.4904 14.7771 22.2434 14.9638C22.0947 15.0761 21.9214 15.1873 21.7267 15.2931L21.5351 15.398L21.5359 15.3967ZM15.9753 13.573C17.8209 13.5289 19.5767 13.7551 20.9199 14.2091C21.1253 14.2788 21.3185 14.3528 21.4974 14.4307C21.5818 14.3791 21.6592 14.326 21.7291 14.2738C21.7641 14.2477 21.7704 14.2137 21.7697 14.1905C21.769 14.1673 21.7611 14.1337 21.7236 14.1092C21.5331 13.9798 21.1858 13.7844 20.6105 13.5912C19.3595 13.1681 17.7062 12.9578 15.9582 12.9992C14.2091 13.0409 12.5704 13.3293 11.3448 13.811C10.7745 14.0355 10.4365 14.2488 10.2531 14.3883C10.2227 14.411 10.2168 14.4426 10.2176 14.4658C10.218 14.488 10.2253 14.5195 10.2576 14.5409C10.3321 14.5922 10.4154 14.6434 10.5059 14.6927C10.6803 14.6057 10.8699 14.5225 11.0706 14.443C12.3871 13.9257 14.1274 13.6167 15.9729 13.5725L15.9753 13.573Z" fill="#1F1F1F"/>
<path d="M16.0459 16.0877C17.8434 16.0453 19.5333 15.7465 20.8037 15.246C21.0893 15.1337 21.3256 15.0223 21.5217 14.9139C21.3197 14.8155 21.0762 14.7148 20.786 14.6167C19.4888 14.1781 17.7849 13.9603 15.9875 14.0026C14.19 14.045 12.5 14.3439 11.2297 14.8443C10.9441 14.9567 10.7068 15.0683 10.5104 15.1756C10.7124 15.2741 10.9558 15.3748 11.2472 15.4726C12.5443 15.9112 14.2482 16.129 16.0457 16.0867L16.0459 16.0877Z" fill="#F7F5F0"/>
<path d="M19.8642 16.0062C18.7404 16.3079 17.4278 16.4864 16.0573 16.519C14.2117 16.5631 12.4559 16.3369 11.1126 15.8829C10.825 15.7863 10.5609 15.6788 10.3263 15.5658C10.1815 15.4954 10.0873 15.3502 10.0836 15.1885C10.0799 15.0267 10.1645 14.877 10.3051 14.8002C10.5334 14.6754 10.7907 14.5562 11.0725 14.446C12.3891 13.9287 14.1293 13.6197 15.9749 13.5755C17.8204 13.5314 19.5763 13.7576 20.9195 14.2116C21.2062 14.3085 21.4712 14.4156 21.7049 14.529C21.8496 14.5993 21.9438 14.7446 21.9475 14.9063C21.9522 15.0677 21.8666 15.2178 21.726 15.2945C21.4978 15.4193 21.2405 15.5386 20.9586 15.6488C20.6201 15.782 20.2525 15.9019 19.8631 16.0064L19.8642 16.0062ZM11.643 15.152C12.859 15.5187 14.4048 15.6988 16.0331 15.6595C17.6626 15.621 19.1958 15.3676 20.3894 14.9435C19.1734 14.5768 17.6276 14.3967 15.9994 14.436C14.3699 14.4745 12.8367 14.7279 11.643 15.152Z" fill="#1F1F1F"/>
<path d="M16.7038 16.0544C12.663 14.4289 13.5916 12.4544 11.4829 12.5425C10.1201 12.5997 10.1341 11.6732 9.18246 11.5876C8.23079 11.5021 7.55489 12.0859 7.72357 13.2242C7.86744 14.1919 8.60168 14.9688 9.54412 15.205C13.3347 16.1576 15.3868 16.282 16.7028 16.0546L16.7038 16.0544Z" fill="#F7F5F0"/>
<path d="M18.2662 16.2201L16.7774 16.4783C15.1892 16.7532 12.8591 16.4816 9.44255 15.6225C8.31046 15.338 7.46994 14.4203 7.30107 13.2854C7.17422 12.4346 7.45173 11.9299 7.70658 11.6575C8.05903 11.2798 8.59555 11.1023 9.21687 11.1584C9.76687 11.208 10.0862 11.48 10.3436 11.6984C10.6313 11.9433 10.86 12.1371 11.4619 12.1125C12.6718 12.0618 13.1047 12.621 13.6065 13.2686C14.1198 13.9299 14.8213 14.8359 16.8576 15.6544L18.2639 16.2196L18.2662 16.2201ZM8.68358 12.0472C8.53835 12.0861 8.41853 12.154 8.33001 12.248C8.10179 12.492 8.10416 12.8792 8.14563 13.1612C8.26118 13.937 8.86383 14.5899 9.64553 14.7868C11.9193 15.3587 13.6809 15.6637 15.0362 15.7143C13.8911 15.0277 13.3571 14.3386 12.9365 13.7962C12.4803 13.2076 12.2727 12.9402 11.5027 12.972C10.5669 13.0115 10.1399 12.6469 9.79645 12.3546C9.57455 12.1657 9.42715 12.0403 9.14658 12.0153C8.97569 11.9999 8.81852 12.0109 8.68462 12.0469L8.68358 12.0472Z" fill="#1F1F1F"/>
</svg>
