<svg width="22" height="22" viewBox="0 0 22 22" fill="none" xmlns="http://www.w3.org/2000/svg">
<path d="M12.5227 13.9811C11.5112 14.7014 10.2738 15.125 8.9375 15.125C5.52024 15.125 2.75 12.3548 2.75 8.9375C2.75 5.52024 5.52024 2.75 8.9375 2.75C12.3548 2.75 15.125 5.52024 15.125 8.9375C15.125 10.2738 14.7014 11.5112 13.9811 12.5227L18.948 17.4895C19.3507 17.8923 19.3507 18.5452 18.948 18.948C18.5452 19.3507 17.8923 19.3507 17.4895 18.948L12.5227 13.9811ZM13.0625 8.9375C13.0625 6.65933 11.2157 4.8125 8.9375 4.8125C6.65933 4.8125 4.8125 6.65933 4.8125 8.9375C4.8125 11.2157 6.65933 13.0625 8.9375 13.0625C11.2157 13.0625 13.0625 11.2157 13.0625 8.9375Z" fill="#1F1F1F"/>
</svg>
