<svg width="28" height="28" viewBox="0 0 28 28" fill="none" xmlns="http://www.w3.org/2000/svg">
<path d="M15.938 17.7941C14.6506 18.7108 13.0758 19.25 11.375 19.25C7.02576 19.25 3.5 15.7243 3.5 11.375C3.5 7.02576 7.02576 3.5 11.375 3.5C15.7242 3.5 19.25 7.02576 19.25 11.375C19.25 13.0758 18.7108 14.6506 17.7941 15.938L24.1156 22.2594C24.6281 22.772 24.6281 23.603 24.1156 24.1156C23.603 24.6281 22.772 24.6281 22.2594 24.1156L15.938 17.7941ZM16.625 11.375C16.625 8.47551 14.2745 6.125 11.375 6.125C8.47551 6.125 6.125 8.47551 6.125 11.375C6.125 14.2745 8.47551 16.625 11.375 16.625C14.2745 16.625 16.625 14.2745 16.625 11.375Z" fill="#1F1F1F"/>
</svg>
