<svg width="30" height="30" viewBox="0 0 30 30" fill="none" xmlns="http://www.w3.org/2000/svg">
<path d="M25.5 8.25C25.5 10.3211 23.8211 12 21.75 12C20.5522 12 19.4855 11.4384 18.799 10.5641L11.8726 14.0273C11.9557 14.3375 12 14.6636 12 15C12 15.3365 11.9557 15.6626 11.8726 15.9728L18.7989 19.436C19.4854 18.5617 20.5521 18 21.75 18C23.8211 18 25.5 19.6789 25.5 21.75C25.5 23.8211 23.8211 25.5 21.75 25.5C19.6789 25.5 18 23.8211 18 21.75C18 21.4136 18.0443 21.0875 18.1274 20.7773L11.201 17.3141C10.5145 18.1884 9.44783 18.75 8.25 18.75C6.17893 18.75 4.5 17.0711 4.5 15C4.5 12.9289 6.17893 11.25 8.25 11.25C9.44789 11.25 10.5146 11.8117 11.2011 12.686L18.1274 9.22284C18.0443 8.91259 18 8.58647 18 8.25C18 6.17893 19.6789 4.5 21.75 4.5C23.8211 4.5 25.5 6.17893 25.5 8.25Z" fill="#1F1F1F"/>
</svg>
