<svg width="12" height="12" viewBox="0 0 12 12" fill="none" xmlns="http://www.w3.org/2000/svg">
<path d="M5.21277 0.356069C5.50795 -0.118689 6.19892 -0.11869 6.4941 0.356067L7.96624 2.72379C8.0701 2.89083 8.23509 3.0107 8.42604 3.05786L11.1328 3.72627C11.6755 3.8603 11.8891 4.51745 11.5287 4.94489L9.73183 7.07665C9.60506 7.22704 9.54204 7.42099 9.5562 7.61718L9.75693 10.398C9.79718 10.9556 9.23817 11.3617 8.72031 11.1512L6.13761 10.1009C5.95541 10.0268 5.75147 10.0268 5.56926 10.1009L2.98657 11.1512C2.46871 11.3617 1.9097 10.9556 1.94995 10.398L2.15068 7.61718C2.16484 7.42099 2.10182 7.22704 1.97505 7.07665L0.178126 4.9449C-0.182178 4.51745 0.0313421 3.8603 0.574079 3.72627L3.28083 3.05786C3.47179 3.0107 3.63678 2.89083 3.74063 2.72379L5.21277 0.356069Z" fill="#1F1F1F"/>
</svg>
