<svg width="20" height="19" viewBox="0 0 20 19" fill="none" xmlns="http://www.w3.org/2000/svg">
<path d="M8.8119 0.471831C9.20318 -0.157484 10.1191 -0.157483 10.5104 0.471832L13.1318 4.68809C13.2695 4.90951 13.4882 5.0684 13.7413 5.13091L18.5613 6.32118C19.2807 6.49884 19.5638 7.36992 19.0862 7.93652L15.8863 11.7326C15.7183 11.9319 15.6348 12.189 15.6535 12.4491L16.011 17.401C16.0643 18.1401 15.3233 18.6784 14.6369 18.3993L10.0378 16.5291C9.7963 16.4309 9.52597 16.4309 9.28445 16.5291L4.68538 18.3993C3.99893 18.6784 3.25794 18.1401 3.31129 17.401L3.66873 12.4491C3.6875 12.189 3.60397 11.9319 3.43593 11.7326L0.236107 7.93652C-0.241496 7.36992 0.0415386 6.49884 0.760964 6.32118L5.58094 5.13091C5.83406 5.0684 6.05276 4.90951 6.19043 4.68809L8.8119 0.471831Z" fill="#DEDCD8"/>
</svg>
