<svg width="30" height="30" viewBox="0 0 30 30" fill="none" xmlns="http://www.w3.org/2000/svg">
<path d="M15 4C12.0019 4 9.57143 6.46243 9.57143 9.5C9.57143 12.5376 12.0019 15 15 15C17.9981 15 20.4286 12.5376 20.4286 9.5C20.4286 6.46243 17.9981 4 15 4ZM8.22613 16.375C6.7257 16.375 5.5 17.5944 5.5 19.125C5.5 21.4504 6.63024 23.2037 8.39749 24.3453C10.1373 25.4692 12.4828 26 15 26C17.5171 26 19.8627 25.4692 21.6025 24.3453C23.3698 23.2037 24.5 21.4504 24.5 19.125C24.5 17.6064 23.2847 16.375 21.7858 16.375L8.22613 16.375Z" fill="#1F1F1F"/>
</svg>
